<?xml version="1.0" encoding="UTF-8" standalone="no"?>
<!-- Created with Inkscape (http://www.inkscape.org/) -->

<svg
   width="64"
   height="64"
   id="svg2"
   version="1.1"
   inkscape:version="1.2.2 (b0a8486541, 2022-12-01)"
   sodipodi:docname="CSrcRespiration.svg"
   xml:space="preserve"
   xmlns:inkscape="http://www.inkscape.org/namespaces/inkscape"
   xmlns:sodipodi="http://sodipodi.sourceforge.net/DTD/sodipodi-0.dtd"
   xmlns="http://www.w3.org/2000/svg"
   xmlns:svg="http://www.w3.org/2000/svg"
   xmlns:rdf="http://www.w3.org/1999/02/22-rdf-syntax-ns#"
   xmlns:cc="http://creativecommons.org/ns#"
   xmlns:dc="http://purl.org/dc/elements/1.1/"><defs
     id="defs4" /><sodipodi:namedview
     id="base"
     pagecolor="#ffffff"
     bordercolor="#666666"
     borderopacity="1.0"
     inkscape:pageopacity="0.0"
     inkscape:pageshadow="2"
     inkscape:zoom="3.959798"
     inkscape:cx="-45.709402"
     inkscape:cy="15.909902"
     inkscape:document-units="px"
     inkscape:current-layer="layer1"
     showgrid="true"
     inkscape:window-width="2560"
     inkscape:window-height="1373"
     inkscape:window-x="0"
     inkscape:window-y="0"
     inkscape:window-maximized="1"
     inkscape:showpageshadow="2"
     inkscape:pagecheckerboard="0"
     inkscape:deskcolor="#d1d1d1"><inkscape:grid
       type="xygrid"
       id="grid2985"
       empspacing="5"
       visible="true"
       enabled="true"
       snapvisiblegridlinesonly="true"
       originx="0"
       originy="0"
       spacingy="1"
       spacingx="1"
       units="px" /></sodipodi:namedview><metadata
     id="metadata7"><rdf:RDF><cc:Work
         rdf:about=""><dc:format>image/svg+xml</dc:format><dc:type
           rdf:resource="http://purl.org/dc/dcmitype/StillImage" /></cc:Work></rdf:RDF></metadata><g
     inkscape:label="Ebene 1"
     inkscape:groupmode="layer"
     id="layer1"
     transform="translate(0,-988.36218)"><rect
       style="opacity:1;fill:#000000;fill-opacity:0;stroke:none;stroke-width:2.88000011;stroke-miterlimit:4;stroke-dasharray:none;stroke-dashoffset:0;stroke-opacity:1"
       id="rect4135"
       width="43.916"
       height="43.916"
       x="9.4701805"
       y="993.42145" /><path
       style="fill:#000080;stroke-width:5.44252338;stroke-dasharray:none"
       d="m 27.905464,996.06459 29.673231,1.76777"
       id="path5" /><path
       style="fill:none;stroke:#000080;stroke-width:3.6;stroke-linejoin:round;stroke-dasharray:none;stroke-dashoffset:0;stroke-opacity:1"
       d="m 28.852482,1037.9859 -4.293148,8.6495 -16.8569209,-10.8592 0.7601481,-1.0872 0.786648,-1.2487 0.3788072,-1.9888 -0.1894036,-2.3675 -1.0417198,-2.3991 -1.3889598,-2.5254 -1.2626906,-1.8941 -1.3573925,-1.8309 -0.7828979,-1.4319 -0.6376292,-1.8827 -0.2525381,-2.7463 0,-1.894 0.1005501,-2.2726 0.3413919,-2.431 0.6944799,-2.0518 1.2626906,-2.2728 1.3258252,-2.0835"
       id="path9"
       sodipodi:nodetypes="cccccccccccccccccccc" /><path
       style="fill:none;stroke:#000080;stroke-width:3.6;stroke-dasharray:none;stroke-dashoffset:0;stroke-opacity:1"
       d="m 6.2834724,1001.5872 1.6714788,-1.92394 1.8309015,-1.6415 2.2097083,-1.38896 1.641498,-0.94701 2.462247,-1.01016 3.219861,-0.75761 2.967323,-0.25254 h 3.409265"
       id="path10"
       sodipodi:nodetypes="ccccccccc" /><path
       style="fill:none;stroke:#000080;stroke-width:3.6;stroke-linecap:round;stroke-linejoin:round;stroke-dasharray:none;stroke-dashoffset:0;stroke-opacity:1"
       d="m 25.625,993.71932 1.964286,0.26786 1.696428,0.40179 2.1875,0.71428 1.919643,0.98214 1.964285,1.16072 1.785715,1.33928 1.473214,1.78571 1.25,1.9643 0.892857,1.9196 0.669643,2.1429 0.625,2.5446 0.178576,1.5179 -0.04465,1.6964 -0.04464,0.759 -0.401786,1.1607 -0.223214,1.2499 0.04465,1.7411 0.714285,1.6518 0.669643,1.5179 0.535715,1.1607 0.580357,1.25 0.223214,0.8929 -0.08929,0.8035 -0.535714,0.6697 -0.714286,0.2678 h -0.848218 l -1.116071,-0.045"
       id="path11"
       sodipodi:nodetypes="cccccccccccccccccccccccccccc" /><path
       style="fill:none;stroke:#000080;stroke-width:3.6;stroke-linecap:round;stroke-linejoin:round;stroke-dasharray:none;stroke-dashoffset:0;stroke-opacity:1"
       d="m 42.589285,1026.7997 h -1.116071 l -1.517857,0.045 h -0.803572 l -0.625,0.134 -0.446428,0.8035 -0.04464,0.4911 0.535714,0.6696 0.625,0.134 0.714286,0.1339 0.803571,0.1786 0.580358,0.1339 v 0.3124 l -0.312501,0.5805 -0.580357,0.6696 -0.580357,0.7143 1e-6,0.8929 0.178571,1.116 0.178571,1.1161 -0.133928,0.9821 -0.223215,0.625 -0.580357,0.3572 -1.026786,0.1339 -1.116071,-0.045 -1.383928,-0.134 -1.294643,-0.1339 h -1.116072 l -1.25,-0.089 -1.473214,0.1339 -1.116071,0.5357 -0.580358,0.625 -0.401785,0.8036"
       id="path12"
       sodipodi:nodetypes="cccccccccccccccccccccccccccccccc" /><path
       style="fill:none;stroke:#000080;stroke-width:2.88000011;stroke-linecap:round;stroke-linejoin:round;stroke-dasharray:none;stroke-dashoffset:0;stroke-opacity:1"
       d="m 48.361053,1020.5394 c 0,0 0.599778,0.3157 5.145465,-0.221 4.545686,-0.5366 7.323606,-4.5772 7.323606,-4.5772"
       id="path22" /><path
       style="fill:none;stroke:#000080;stroke-width:2.88000011;stroke-linecap:round;stroke-linejoin:round;stroke-dasharray:none;stroke-dashoffset:0;stroke-opacity:1"
       d="m 48.171649,1025.5326 c 5.113897,0 14.110568,-3.0304 14.110568,-3.0304"
       id="path23"
       sodipodi:nodetypes="cc" /><path
       style="fill:none;stroke:#000080;stroke-width:2.88000011;stroke-linecap:round;stroke-linejoin:round;stroke-dasharray:none;stroke-dashoffset:0;stroke-opacity:1"
       d="m 48.361404,1033.8345 c 0,0 0.599778,-0.3157 5.145465,0.221 4.545686,0.5366 7.323606,4.5772 7.323606,4.5772"
       id="path25" /><path
       style="fill:none;stroke:#000080;stroke-width:2.88000011;stroke-linecap:round;stroke-linejoin:round;stroke-dasharray:none;stroke-dashoffset:0;stroke-opacity:1"
       d="m 48.172015,1029.0412 c 5.114043,0 14.11097,3.0304 14.11097,3.0304"
       id="path26"
       sodipodi:nodetypes="cc" /><ellipse
       style="fill:#000080;fill-opacity:1;stroke:#000080;stroke-width:4.41352787;stroke-linecap:round;stroke-linejoin:round;stroke-dasharray:none;stroke-dashoffset:0;stroke-opacity:1"
       id="path30"
       cx="34.363132"
       cy="1010.7297"
       rx="0.96752244"
       ry="0.9675228" /></g></svg>
