<?xml version="1.0" encoding="UTF-8" standalone="no"?>
<!-- Created with Inkscape (http://www.inkscape.org/) -->

<svg
   width="54"
   height="54"
   id="svg3513"
   version="1.1"
   inkscape:version="1.2.2 (b0a8486541, 2022-12-01)"
   sodipodi:docname="Device.svg"
   xmlns:inkscape="http://www.inkscape.org/namespaces/inkscape"
   xmlns:sodipodi="http://sodipodi.sourceforge.net/DTD/sodipodi-0.dtd"
   xmlns="http://www.w3.org/2000/svg"
   xmlns:svg="http://www.w3.org/2000/svg"
   xmlns:rdf="http://www.w3.org/1999/02/22-rdf-syntax-ns#"
   xmlns:cc="http://creativecommons.org/ns#"
   xmlns:dc="http://purl.org/dc/elements/1.1/">
  <defs
     id="defs3515">
    <marker
       inkscape:stockid="Arrow1Mstart"
       orient="auto"
       refY="0"
       refX="0"
       id="Arrow1Mstart"
       style="overflow:visible">
      <path
         inkscape:connector-curvature="0"
         id="path4038"
         d="M 0,0 5,-5 -12.5,0 5,5 Z"
         style="fill-rule:evenodd;stroke:#000000;stroke-width:1pt"
         transform="matrix(0.4,0,0,0.4,4,0)" />
    </marker>
    <marker
       inkscape:stockid="Arrow1Mend"
       orient="auto"
       refY="0"
       refX="0"
       id="Arrow1Mend"
       style="overflow:visible">
      <path
         inkscape:connector-curvature="0"
         id="path4041"
         d="M 0,0 5,-5 -12.5,0 5,5 Z"
         style="fill-rule:evenodd;stroke:#000000;stroke-width:1pt"
         transform="matrix(-0.4,0,0,-0.4,-4,0)" />
    </marker>
  </defs>
  <sodipodi:namedview
     id="base"
     pagecolor="#ffffff"
     bordercolor="#666666"
     borderopacity="1.0"
     inkscape:pageopacity="0.0"
     inkscape:pageshadow="2"
     inkscape:zoom="11"
     inkscape:cx="4.1363636"
     inkscape:cy="25.363636"
     inkscape:current-layer="layer1"
     showgrid="true"
     inkscape:document-units="px"
     inkscape:grid-bbox="true"
     inkscape:window-width="1920"
     inkscape:window-height="1022"
     inkscape:window-x="1920"
     inkscape:window-y="0"
     inkscape:window-maximized="1"
     inkscape:showpageshadow="2"
     inkscape:pagecheckerboard="0"
     inkscape:deskcolor="#d1d1d1">
    <inkscape:grid
       type="xygrid"
       id="grid3006"
       originx="-4"
       originy="-4" />
  </sodipodi:namedview>
  <metadata
     id="metadata3518">
    <rdf:RDF>
      <cc:Work
         rdf:about="">
        <dc:format>image/svg+xml</dc:format>
        <dc:type
           rdf:resource="http://purl.org/dc/dcmitype/StillImage" />
      </cc:Work>
    </rdf:RDF>
  </metadata>
  <g
     id="layer1"
     inkscape:label="Layer 1"
     inkscape:groupmode="layer"
     transform="translate(-4,-4)">
    <g
       id="g2998"
       transform="translate(1,2)">
      <rect
         y="4"
         x="15"
         height="50"
         width="30"
         id="rect3008"
         style="fill:#000080;stroke:#000080;stroke-width:2;stroke-linecap:round;stroke-linejoin:round;stroke-miterlimit:4;stroke-dasharray:none;stroke-dashoffset:0;stroke-opacity:1" />
      <rect
         y="9"
         x="20"
         height="30"
         width="20"
         id="rect3790"
         style="fill:#999999;fill-opacity:1;fill-rule:evenodd;stroke:#b3b3b3;stroke-width:2;stroke-linecap:round;stroke-linejoin:round;stroke-miterlimit:4;stroke-dasharray:none;stroke-dashoffset:0;stroke-opacity:1" />
      <g
         transform="translate(-0.5)"
         id="g3834">
        <g
           id="g3826">
          <path
             transform="translate(0,0.5)"
             sodipodi:open="true"
             sodipodi:end="6.2789689"
             sodipodi:start="0"
             d="m 32,43.5 a 1.5,1.5 0 0 1 -1.498419,1.499999 1.5,1.5 0 0 1 -1.501578,-1.496837 1.5,1.5 0 0 1 1.495254,-1.503154 1.5,1.5 0 0 1 1.50473,1.493667"
             sodipodi:ry="1.5"
             sodipodi:rx="1.5"
             sodipodi:cy="43.5"
             sodipodi:cx="30.5"
             id="path3792"
             style="fill:#999999;fill-opacity:1;fill-rule:evenodd;stroke:#b3b3b3;stroke-width:2;stroke-linecap:round;stroke-linejoin:round;stroke-miterlimit:4;stroke-dasharray:none;stroke-dashoffset:0;stroke-opacity:1"
             sodipodi:type="arc"
             sodipodi:arc-type="arc" />
          <path
             transform="translate(0,7.5)"
             sodipodi:open="true"
             sodipodi:end="6.2789689"
             sodipodi:start="0"
             d="m 32,43.5 a 1.5,1.5 0 0 1 -1.498419,1.499999 1.5,1.5 0 0 1 -1.501578,-1.496837 1.5,1.5 0 0 1 1.495254,-1.503154 1.5,1.5 0 0 1 1.50473,1.493667"
             sodipodi:ry="1.5"
             sodipodi:rx="1.5"
             sodipodi:cy="43.5"
             sodipodi:cx="30.5"
             id="path3792-5"
             style="fill:#999999;fill-opacity:1;fill-rule:evenodd;stroke:#b3b3b3;stroke-width:2;stroke-linecap:round;stroke-linejoin:round;stroke-miterlimit:4;stroke-dasharray:none;stroke-dashoffset:0;stroke-opacity:1"
             sodipodi:type="arc"
             sodipodi:arc-type="arc" />
        </g>
        <g
           id="g3830"
           transform="translate(0,1)">
          <path
             transform="translate(-7.5,3)"
             sodipodi:open="true"
             sodipodi:end="6.2789689"
             sodipodi:start="0"
             d="m 32,43.5 a 1.5,1.5 0 0 1 -1.498419,1.499999 1.5,1.5 0 0 1 -1.501578,-1.496837 1.5,1.5 0 0 1 1.495254,-1.503154 1.5,1.5 0 0 1 1.50473,1.493667"
             sodipodi:ry="1.5"
             sodipodi:rx="1.5"
             sodipodi:cy="43.5"
             sodipodi:cx="30.5"
             id="path3792-0"
             style="fill:#999999;fill-opacity:1;fill-rule:evenodd;stroke:#b3b3b3;stroke-width:2;stroke-linecap:round;stroke-linejoin:round;stroke-miterlimit:4;stroke-dasharray:none;stroke-dashoffset:0;stroke-opacity:1"
             sodipodi:type="arc"
             sodipodi:arc-type="arc" />
          <path
             transform="translate(7.5,3)"
             sodipodi:open="true"
             sodipodi:end="6.2789689"
             sodipodi:start="0"
             d="m 32,43.5 a 1.5,1.5 0 0 1 -1.498419,1.499999 1.5,1.5 0 0 1 -1.501578,-1.496837 1.5,1.5 0 0 1 1.495254,-1.503154 1.5,1.5 0 0 1 1.50473,1.493667"
             sodipodi:ry="1.5"
             sodipodi:rx="1.5"
             sodipodi:cy="43.5"
             sodipodi:cx="30.5"
             id="path3792-7"
             style="fill:#999999;fill-opacity:1;fill-rule:evenodd;stroke:#b3b3b3;stroke-width:2;stroke-linecap:round;stroke-linejoin:round;stroke-miterlimit:4;stroke-dasharray:none;stroke-dashoffset:0;stroke-opacity:1"
             sodipodi:type="arc"
             sodipodi:arc-type="arc" />
        </g>
      </g>
    </g>
    <rect
       style="fill:none;stroke:none"
       id="rect2996"
       width="54"
       height="54"
       x="4"
       y="4" />
  </g>
</svg>
