<?xml version="1.0" encoding="UTF-8" standalone="no"?>
<!-- Created with Inkscape (http://www.inkscape.org/) -->

<svg
   width="120"
   height="120"
   viewBox="0 0 120 120"
   version="1.1"
   id="svg1"
   inkscape:version="1.4.2 (ebf0e940d0, 2025-05-08)"
   sodipodi:docname="ATV.svg"
   xmlns:inkscape="http://www.inkscape.org/namespaces/inkscape"
   xmlns:sodipodi="http://sodipodi.sourceforge.net/DTD/sodipodi-0.dtd"
   xmlns="http://www.w3.org/2000/svg"
   xmlns:svg="http://www.w3.org/2000/svg">
  <sodipodi:namedview
     id="namedview1"
     pagecolor="#ffffff"
     bordercolor="#111111"
     borderopacity="1"
     inkscape:showpageshadow="0"
     inkscape:pageopacity="0"
     inkscape:pagecheckerboard="1"
     inkscape:deskcolor="#d1d1d1"
     inkscape:document-units="px"
     inkscape:zoom="1.3169864"
     inkscape:cx="47.456831"
     inkscape:cy="-57.707506"
     inkscape:window-width="1920"
     inkscape:window-height="1122"
     inkscape:window-x="0"
     inkscape:window-y="0"
     inkscape:window-maximized="1"
     inkscape:current-layer="layer2" />
  <defs
     id="defs1" />
  <g
     inkscape:label="BoundingBox"
     inkscape:groupmode="layer"
     id="layer1">
    <rect
       style="opacity:0;fill:#ffffff;stroke:#ffffff;stroke-width:2;stroke-linecap:round;stroke-linejoin:round"
       id="rect1"
       width="120"
       height="120"
       x="0"
       y="0"
       ry="0.40268457" />
  </g>
  <g
     inkscape:groupmode="layer"
     id="layer2"
     inkscape:label="Symbol">
    <ellipse
       style="fill:none;fill-rule:evenodd;stroke:#000000;stroke-width:66.0996;stroke-linecap:butt;stroke-linejoin:miter;stroke-dasharray:none;stroke-opacity:1"
       id="path4"
       cx="106.9567"
       cy="349.89221"
       rx="73.078751"
       ry="73.078743"
       inkscape:label="wheel"
       transform="matrix(0.17064044,0,0,0.17064044,4.7103334,21.020544)" />
    <ellipse
       style="fill:none;fill-rule:evenodd;stroke:#000000;stroke-width:60.3779;stroke-linecap:butt;stroke-linejoin:miter;stroke-dasharray:none;stroke-opacity:1"
       id="path4-9"
       cx="550.25531"
       cy="360.41888"
       rx="66.752953"
       ry="66.752945"
       inkscape:label="wheel"
       transform="matrix(0.17064044,0,0,0.17064044,4.7103334,21.020544)" />
    <path
       style="fill:#ff0000;fill-rule:evenodd;stroke:#ff0000;stroke-width:1px;stroke-linecap:butt;stroke-linejoin:miter;stroke-opacity:1"
       d="m 237.46246,334.90146 192.96787,0.0438 c 0.58811,-44.52972 19.06625,-80.29514 48.10344,-106.14403 40.35799,-39.17696 96.74542,-36.538 152.29355,-36.08851 0.25623,-14.08054 -9.05281,-20.60955 -21.65311,-24.5402 l -196.32155,-60.62871 -48.35861,71.45527 c -6.71189,11.06386 -15.167,20.568 -34.64498,20.20957 L 90.221299,124.86628 c -18.796847,-4.2591 -29.488843,2.82859 -38.166265,12.73669 l -17.410055,27.68245 110.430871,36.08852 c 28.09366,11.93886 46.08455,28.13152 61.35048,45.47153 21.25627,27.98813 31.55557,57.34589 31.03613,88.05599 z"
       id="path5"
       sodipodi:nodetypes="cccccccccccccc"
       inkscape:label="body"
       transform="matrix(0.17064044,0,0,0.17064044,4.7103334,21.020544)" />
    <path
       style="fill:#000000;fill-rule:evenodd;stroke:#000000;stroke-width:2.08945px;stroke-linecap:butt;stroke-linejoin:miter;stroke-opacity:1"
       id="path3"
       sodipodi:type="arc"
       sodipodi:cx="-72.191605"
       sodipodi:cy="511.08569"
       sodipodi:rx="39.213741"
       sodipodi:ry="45.17136"
       sodipodi:start="3.1415927"
       sodipodi:end="0"
       sodipodi:arc-type="slice"
       d="m -111.40535,511.08569 a 39.213741,45.17136 0 0 1 39.213745,-45.17136 39.213741,45.17136 0 0 1 39.213742,45.17136 h -39.213742 z"
       transform="matrix(0,-0.17064044,0.17064044,0,4.7103334,21.020544)"
       inkscape:label="light" />
    <path
       style="fill:#000000;fill-rule:evenodd;stroke:#000000;stroke-width:1px;stroke-linecap:butt;stroke-linejoin:miter;stroke-opacity:1"
       d="m 291.59524,27.06639 h 84.44714 l 3.96973,0.72177 3.24797,1.082656 2.88708,1.443541 2.88708,2.887081 2.5262,2.526196 23.09665,46.554191 36.44941,11.548326 -34.64498,-70.011728 -2.5262,-3.608852 -2.16531,-3.608852 -3.96974,-3.608852 L 402.74788,9.3830151 396.61283,5.0523928 388.67336,1.804426 378.92946,0.3608852 373.51618,0 l -83.0036,0.3608852 -3.96973,1.4435408 -3.60886,3.608852 -2.52619,3.9697371 -0.72177,3.9697369 0.0902,4.15018 2.07509,4.15018 2.61642,2.345754 2.79686,1.984868 z"
       id="path2"
       sodipodi:nodetypes="cccccccccccccccccccccccccccc"
       inkscape:label="steering"
       transform="matrix(0.17064044,0,0,0.17064044,4.7103334,21.020544)" />
  </g>
</svg>
