<?xml version="1.0" encoding="UTF-8" standalone="no"?>
<!-- Created with Inkscape (http://www.inkscape.org/) -->

<svg
   width="120"
   height="120"
   viewBox="0 0 120 120"
   version="1.1"
   id="svg1"
   inkscape:version="1.4.2 (ebf0e940d0, 2025-05-08)"
   sodipodi:docname="bell.svg"
   xmlns:inkscape="http://www.inkscape.org/namespaces/inkscape"
   xmlns:sodipodi="http://sodipodi.sourceforge.net/DTD/sodipodi-0.dtd"
   xmlns="http://www.w3.org/2000/svg"
   xmlns:svg="http://www.w3.org/2000/svg">
  <sodipodi:namedview
     id="namedview1"
     pagecolor="#ffffff"
     bordercolor="#111111"
     borderopacity="1"
     inkscape:showpageshadow="0"
     inkscape:pageopacity="0"
     inkscape:pagecheckerboard="1"
     inkscape:deskcolor="#d1d1d1"
     inkscape:document-units="px"
     inkscape:zoom="1.8625"
     inkscape:cx="-1.8791946"
     inkscape:cy="49.932886"
     inkscape:window-width="1920"
     inkscape:window-height="1122"
     inkscape:window-x="0"
     inkscape:window-y="0"
     inkscape:window-maximized="1"
     inkscape:current-layer="layer2" />
  <defs
     id="defs1" />
  <g
     inkscape:label="BoundingBox"
     inkscape:groupmode="layer"
     id="layer1">
    <rect
       style="opacity:0;fill:#ffffff;stroke:#ffffff;stroke-width:2;stroke-linecap:round;stroke-linejoin:round"
       id="rect1"
       width="120"
       height="120"
       x="0"
       y="0"
       ry="0.40268457" />
  </g>
  <g
     inkscape:groupmode="layer"
     id="layer2"
     inkscape:label="Symbol">
    <path
       style="fill:#d4aa00;fill-rule:evenodd;stroke:#d4aa00;stroke-width:0.405535px;stroke-linecap:butt;stroke-linejoin:miter;stroke-opacity:1"
       d="m 26.447696,87.814846 -7.885803,17.062024 h 29.966055 l 0.430135,1.72054 0.86027,2.58081 1.577162,2.0073 2.150673,1.57716 3.010943,1.43378 2.724189,0.71689 2.294051,0.14338 2.580809,-1.00365 2.580808,-1.2904 2.294054,-2.0073 1.433781,-2.15067 0.716893,-1.86392 0.430135,-2.15068 h 29.822679 l -8.029182,-16.918634 -0.860272,-38.998888 -0.143377,-2.150677 -0.57351,-3.01094 -0.430132,-1.720544 -1.00365,-3.010941 -1.433784,-2.867564 -1.720545,-3.010948 -1.863914,-3.01094 -2.580808,-2.294055 -2.437431,-2.580807 -3.441074,-1.863918 -3.010948,-1.720539 -2.867564,-1.003648 -2.724189,-0.860269 -1.863916,-0.143378 0.716889,-1.003648 1.433785,-2.294053 0.573512,-2.43743 -0.430136,-3.010943 -1.290403,-2.2940533 -2.007298,-1.577161 -2.724184,-1.577161 -2.294051,-0.286756 -2.724189,0.286756 -2.580809,1.003648 -2.007296,1.433783 -1.577159,2.5808083 -0.716892,2.294053 v 2.724186 l 1.147028,2.150675 2.150673,2.007296 -2.437431,0.286756 -2.150674,0.716891 -2.437433,0.716891 -2.437431,1.003648 -2.867566,1.577161 -2.007293,1.577161 -2.150673,2.007296 -2.294056,2.437429 -2.29405,3.010943 -2.150674,3.584458 -1.290403,2.580809 -1.003651,3.584458 -1.147025,3.154318 z"
       id="path3" />
  </g>
</svg>
