<?xml version="1.0" encoding="UTF-8" standalone="no"?>
<!-- Created with Inkscape (http://www.inkscape.org/) -->

<svg
   width="120"
   height="120"
   viewBox="0 0 120 120"
   version="1.1"
   id="svg1"
   inkscape:version="1.4.2 (ebf0e940d0, 2025-05-08)"
   sodipodi:docname="BigGame.svg"
   xmlns:inkscape="http://www.inkscape.org/namespaces/inkscape"
   xmlns:sodipodi="http://sodipodi.sourceforge.net/DTD/sodipodi-0.dtd"
   xmlns="http://www.w3.org/2000/svg"
   xmlns:svg="http://www.w3.org/2000/svg">
  <sodipodi:namedview
     id="namedview1"
     pagecolor="#ffffff"
     bordercolor="#111111"
     borderopacity="1"
     inkscape:showpageshadow="0"
     inkscape:pageopacity="0"
     inkscape:pagecheckerboard="1"
     inkscape:deskcolor="#d1d1d1"
     inkscape:document-units="px"
     inkscape:zoom="3.725"
     inkscape:cx="57.04698"
     inkscape:cy="49.127517"
     inkscape:window-width="1920"
     inkscape:window-height="1122"
     inkscape:window-x="0"
     inkscape:window-y="0"
     inkscape:window-maximized="1"
     inkscape:current-layer="layer2" />
  <defs
     id="defs1" />
  <g
     inkscape:label="BoundingBox"
     inkscape:groupmode="layer"
     id="layer1">
    <rect
       style="opacity:0;fill:#ffffff;stroke:#ffffff;stroke-width:2;stroke-linecap:round;stroke-linejoin:round"
       id="rect1"
       width="120"
       height="120"
       x="0"
       y="0"
       ry="0.40268457" />
  </g>
  <g
     inkscape:groupmode="layer"
     id="layer2"
     inkscape:label="Symbol">
    <path
       style="display:inline;fill:#000000;fill-rule:evenodd;stroke:#000000;stroke-width:0.347138;stroke-linecap:butt;stroke-linejoin:miter;stroke-dasharray:none;stroke-opacity:1"
       d="m 67.541839,75.527542 c 10.995753,-4.15831 19.353513,-11.57941 22.661176,-25.24668 1.099192,-2.484112 1.539842,-4.968223 2.05319,-7.452334 0.227584,-0.78579 0.276343,-1.57158 0.304176,-2.357371 0.811137,-0.714619 1.622281,-1.375379 2.433418,-2.281326 2.159275,-0.426973 4.698903,0.61262 7.300241,-7.528378 -2.938319,-1.536662 -6.064034,0.67463 -9.20135,3.117813 1.385449,-3.089942 4.371496,-6.298448 16.57764,-10.189924 3.03305,-1.350389 3.78443,-4.25232 1.74902,-9.049262 l -0.57033,1.140663 c -1.17912,-3.022632 -2.58596,-4.868716 -4.37254,-4.752763 -0.11652,0.19034 -0.30774,0.604534 -0.023,0.879755 2.53958,2.455407 4.82051,8.661049 1.01165,9.766434 -0.85197,0.238663 -1.1741,-0.317425 -1.21674,-1.292751 -0.28958,-5.847179 1.3785,-12.1480468 -6.834473,-15.5795588 -0.490131,-0.01927 -0.677399,0.416907 -0.336745,0.822694 2.651118,3.157978 5.311548,6.3157358 4.932088,10.2315358 -0.29618,3.056252 0.056,5.450935 -1.16601,6.990251 -0.58389,0.735524 -1.64712,1.202183 -2.6675,1.738245 -1.306403,0.686327 -2.664081,1.413507 -4.155303,2.184547 -1.403625,0.886246 -2.002341,-4.132017 -2.609298,-4.289579 -0.65798,-0.03981 -0.544924,0.470536 -0.522908,0.657613 0.317478,2.697866 1.377902,5.047653 -2.266937,8.57484 -0.575597,-0.01661 -1.1512,0.252668 -1.726797,0.639979 -1.059916,-0.07169 -2.10912,-0.143391 -3.118736,-0.215086 -0.667139,-0.356847 -1.327527,-0.747203 -2.043361,-0.860342 -3.646818,-3.101599 -2.287453,-9.696124 -2.742342,-9.947705 -0.770723,0.134418 -1.165045,2.278403 -2.043311,4.570567 -0.176041,0.381085 -0.655445,0.227331 -1.182908,0.101844 -4.034342,-0.959792 -7.429762,-3.160156 -7.712555,-8.243371 0.0727,-4.841031 4.422783,-12.6027538 3.764192,-12.6993838 -1.034999,0.274475 -1.286959,1.316784 -2.446914,2.954463 -1.514945,2.1388778 -3.657989,9.5259148 -3.476776,12.0319498 0.07123,0.985084 0.225453,1.655724 0.03027,1.705293 -0.752249,0.114568 -3.373961,-0.719575 -0.852072,-5.642714 0.437165,-0.853427 1.973064,-2.791098 1.49845,-2.703138 -1.519153,-0.22204 -3.931846,2.903073 -4.623901,6.203805 0.01791,1.896027 0.788191,3.806085 3.033002,4.862471 2.771523,1.304255 6.752121,2.024075 10.755922,4.848186 1.297074,0.914902 2.212408,2.318569 3.149056,3.732189 l -0.107543,1.290513 c -0.570598,-1.063431 -1.476018,-1.457215 -2.473484,-1.666913 -4.010626,-3.839686 -6.703106,-4.195692 -8.710959,-2.742341 1.150887,6.093707 3.118258,5.596147 5.054504,7.36668 0.828841,0.10012 1.655196,0.201068 2.903658,0.161314 0.412247,0.445704 0.824495,0.497409 1.236742,1.451827 -2.005243,2.872295 -3.828316,5.692538 -4.839425,8.280793 l -5.00074,1.828226 c -1.604936,-0.87016 -3.275559,-1.641782 -5.281692,-1.910152 -3.353348,0.604653 -6.320963,1.402172 -9.277396,2.205282 -10.4689,-0.633116 -20.276867,-2.389079 -30.341641,-4.638697 -5.847705,0.04121 -12.732996,4.256032 -14.7510557,7.833407 -2.482628,4.400906 -2.439307,11.63211 -0.0015,15.85437 l 0.342198,-0.79847 c 0.221665,0.39923 0.5138017,0.79847 0.8364867,1.1977 0.0853,-0.20449 0.159174,-0.41471 0.342199,-0.57033 0.12414,0.34479 0.347225,0.59065 0.570332,0.83648 0.03812,-0.15209 0.0793,-0.30418 0.266154,-0.45626 0.142701,0.27859 0.34087,0.44625 0.53231,0.62736 -0.02104,-0.4901 -0.0739,-0.96429 0,-1.50187 l 0.361209,-0.62737 -0.03802,-1.42582 c 0.804125,1.19795 1.813064,2.31909 3.022757,3.36495 -0.548028,2.92409 -2.748996,6.23966 -7.1481537,10.07586 -0.644726,0.69757 -1.15472,1.43556 -0.798464,2.43342 2.6118037,7.63939 3.3633707,15.74382 4.9581257,23.637468 -0.171328,1.33638 -0.207788,3.34445 -0.215085,3.71022 l 0.653865,0.20466 0.744191,0.11797 c 0.53585,1.54494 0.835996,2.7756 1.236741,4.1404 2.034987,0.34379 4.09804,0.43498 6.183709,0.32263 -0.65936,-1.4439 -1.748903,-2.97384 -2.634798,-4.46304 -0.388365,-0.1136 -0.748943,-0.0883 -1.18297,-0.43016 -0.699175,-1.29037 -1.407842,-2.57124 -1.613141,-4.35549 0.293947,-0.68468 0.180841,-1.16584 0.215085,-1.72068 -1.1845,-4.826108 -2.308367,-9.706118 -0.967885,-16.776668 1.281868,-3.14519 3.652685,-4.80545 6.506338,-5.80731 -0.68999,2.60562 -3.318441,7.01116 -3.352053,7.38947 -0.252071,1.17399 9.819756,12.16737 14.752579,18.174568 0.178466,0.89266 0.338476,1.82838 0.72492,2.23576 0.457056,0.27879 0.914113,0.20607 1.37117,0.21509 1.028211,0.76636 1.079654,2.18389 1.532484,3.33382 1.729647,0.64401 3.459292,0.43057 5.188939,0.64527 0.474071,-0.2223 0.329844,-0.85996 -2.581027,-4.73189 -0.434726,0.21817 -0.600037,0.0771 -0.833456,0.0269 -0.612712,-0.76449 -1.089565,-1.63767 -1.344285,-2.68856 -3.023207,-3.79671 -6.090948,-7.482078 -8.97982,-11.614628 -1.845435,-3.81463 -1.547917,-6.85781 0.1882,-9.38308 3.416815,-2.83307 4.960112,-5.97839 6.721422,-9.08738 4.710053,0.85219 9.943827,0.39507 15.217301,-0.1613 1.201143,4.99094 1.877656,10.02957 1.505599,15.16353 -0.647479,0.94546 -1.178633,1.81339 -1.398057,2.47348 0.120287,0.66066 0.36542,1.23808 0.914114,1.61314 -0.494438,2.97842 -1.205925,6.39093 -1.828227,9.625078 -0.571759,0.94725 -1.394427,1.90967 -1.555549,3.13449 0.0754,0.52088 0.486131,1.04175 1.071607,1.54362 -0.09234,0.82585 -0.206479,1.66261 -0.161314,2.41971 -0.0026,0.71825 0.201098,1.33336 0.483942,1.90888 l 5.269595,0.18821 c 0.600447,0.0186 -1.433903,-2.28116 -2.150855,-3.97909 -0.170004,-0.87609 0.199573,-1.88708 0.591485,-2.90365 -0.125467,-0.60984 -0.250933,-1.09056 -0.3764,-1.55937 1.115279,-3.08829 1.373801,-7.677058 2.903655,-11.937248 -8.33e-4,-0.54197 0.07631,-0.69387 -0.05377,-1.882 0.713512,-2.52553 1.173588,-4.92435 2.150855,-7.58176 1.440254,2.3385 2.965676,4.63441 4.020098,7.16581 -0.154199,1.01181 -0.384893,1.94713 -0.152089,3.34594 0.09091,0.63895 0.41628,1.16066 0.912528,1.59694 1.573369,4.38745 2.063132,7.420388 2.889682,10.874318 0.02846,1.70836 -0.363523,2.74403 -0.836485,3.65012 -0.0611,0.64394 0.164106,1.18052 0.912529,1.52088 0.404006,0.0285 0.863416,-0.0539 1.3688,-0.22813 0.354838,0.58304 0.575174,1.30059 0.836485,1.97715 -0.352401,0.70047 -0.285785,1.26128 -0.342195,1.86308 0.253481,0.46054 0.583005,0.75612 0.836485,0.91253 l 4.904847,0.038 c 0.750373,0.009 -2.14278,-3.17505 -2.433411,-4.9429 -0.371639,-1.10673 -0.604985,-2.07517 -0.836492,-3.04177 -1.193502,-1.33287 -1.354331,-2.87229 -1.901102,-4.33452 l -1.064617,-8.669028 0.228133,-1.33079 -0.228133,-1.48285 c -0.275287,-0.87619 -0.457944,-1.39825 -0.608359,-3.57408 -0.198938,-2.31745 -0.171889,-4.20721 0.98858,-9.04926 0.127198,-0.66179 0.280987,-1.48314 0.608352,-3.34595 z"
       id="path1"
       sodipodi:nodetypes="cccccccccccscccssssccsccccccsccsscsccssccccccccccccsccccccccccccccccccccccccccccccccccccccccccccccccccccccccccccccccccccccccc" />
  </g>
</svg>
