<?xml version="1.0" encoding="UTF-8" standalone="no"?>
<!-- Created with Inkscape (http://www.inkscape.org/) -->

<svg
   width="120"
   height="120"
   viewBox="0 0 120 120"
   version="1.1"
   id="svg1"
   inkscape:version="1.4.2 (ebf0e940d0, 2025-05-08)"
   sodipodi:docname="ContactBug.svg"
   xmlns:inkscape="http://www.inkscape.org/namespaces/inkscape"
   xmlns:sodipodi="http://sodipodi.sourceforge.net/DTD/sodipodi-0.dtd"
   xmlns="http://www.w3.org/2000/svg"
   xmlns:svg="http://www.w3.org/2000/svg">
  <sodipodi:namedview
     id="namedview1"
     pagecolor="#ffffff"
     bordercolor="#111111"
     borderopacity="1"
     inkscape:showpageshadow="0"
     inkscape:pageopacity="0"
     inkscape:pagecheckerboard="1"
     inkscape:deskcolor="#d1d1d1"
     inkscape:document-units="px"
     inkscape:zoom="1.8625"
     inkscape:cx="77.583893"
     inkscape:cy="69.798658"
     inkscape:window-width="1920"
     inkscape:window-height="1122"
     inkscape:window-x="0"
     inkscape:window-y="0"
     inkscape:window-maximized="1"
     inkscape:current-layer="layer2" />
  <defs
     id="defs1" />
  <g
     inkscape:label="BoundingBox"
     inkscape:groupmode="layer"
     id="layer1">
    <rect
       style="opacity:0;fill:#ffffff;stroke:#ffffff;stroke-width:2;stroke-linecap:round;stroke-linejoin:round"
       id="rect1"
       width="120"
       height="120"
       x="0"
       y="0"
       ry="0.40268457" />
  </g>
  <g
     inkscape:groupmode="layer"
     id="layer2"
     inkscape:label="Symbol"
     transform="translate(378.17272,-818.59454)"
     style="fill:#000000;stroke:#000000">
    <path
       style="fill:#000000;fill-rule:evenodd;stroke:#000000;stroke-width:0.237921px;stroke-linecap:butt;stroke-linejoin:miter;stroke-opacity:1"
       d="m -329.09434,842.26017 c 7.90827,-1.74638 15.17483,-1.69596 21.8537,0 -3.32025,-11.94063 -18.96658,-9.91184 -21.8537,0 z"
       id="path1"
       sodipodi:nodetypes="ccc"
       inkscape:label="head" />
    <path
       style="fill:#000000;fill-rule:evenodd;stroke:#000000;stroke-width:0.237921px;stroke-linecap:butt;stroke-linejoin:miter;stroke-opacity:1"
       d="m -323.20586,835.3575 c -6.67121,-11.75643 -15.17522,-12.06217 -20.70168,-11.70379 -2.07228,0.78243 -2.36589,3.39073 0.29342,4.20554 10.86787,-0.38946 13.81329,4.90457 16.88735,10.10633 z"
       id="path3"
       sodipodi:nodetypes="ccccc"
       inkscape:label="antenna" />
    <path
       style="fill:#000000;fill-rule:evenodd;stroke:#000000;stroke-width:0.237921px;stroke-linecap:butt;stroke-linejoin:miter;stroke-opacity:1"
       d="m -309.45367,837.55748 c 3.9111,-7.86125 9.94656,-10.02917 16.92049,-9.68203 2.20411,-1.28449 2.12541,-3.08036 0,-4.33385 -8.48544,-0.5111 -15.50193,2.77678 -20.42446,11.48011 z"
       id="path2"
       sodipodi:nodetypes="ccccc"
       inkscape:label="antenna" />
    <path
       style="fill:#000000;fill-rule:evenodd;stroke:#000000;stroke-width:0.237921px;stroke-linecap:butt;stroke-linejoin:miter;stroke-opacity:1"
       d="m -318.54391,843.47516 c 12.85679,0.4672 16.53823,2.8582 20.25161,7.97531 1.9469,2.68288 3.63952,5.68101 5.01422,8.97725 0.25009,1.6576 0.0777,2.25887 -1e-5,3.0971 l 3.91213,0.0652 0.014,-10.40299 c -0.01,-0.22957 0.064,-0.50073 0.29969,-0.85294 l 8.34498,-9.29013 c 3.07998,-1.77111 5.33979,0.9868 4.14944,3.3887 l -7.46945,8.41468 0.0731,11.64418 c -0.35654,1.59597 -1.19911,2.34941 -2.47768,2.34727 l -63.77852,0.0239 c -1.08995,-0.20021 -1.94858,-0.81166 -2.25914,-2.39745 l 0.0922,-11.75674 -7.46899,-8.34498 c -0.91717,-1.55748 0.50731,-4.79499 3.73449,-3.45787 l 8.43719,8.99045 c 0.25161,0.44568 0.4701,0.89136 0.59937,1.33704 v 10.23528 h 3.91891 c -0.14816,-1.05487 -0.39114,-2.09789 0.12902,-3.2363 1.5737,-4.59981 4.72199,-9.77269 9.24193,-13.05243 3.7866,-2.74762 9.28746,-3.60631 15.24147,-3.70452 z"
       id="path4"
       sodipodi:nodetypes="ccccccccccccccccccccscsc"
       inkscape:label="chest" />
    <path
       style="fill:#000000;fill-rule:evenodd;stroke:#000000;stroke-width:0.237921px;stroke-linecap:butt;stroke-linejoin:miter;stroke-opacity:1"
       d="m -320.40217,923.47818 0.0652,-51.05327 -21.1907,0.26081 c -2.03958,0.19412 -4.28124,0.5676 -5.04687,4.24933 -0.36837,1.77136 -0.46447,4.3384 -0.75612,8.26948 l -0.26081,5.34657 c 0.0631,3.71652 0.28922,7.43305 1.04324,11.14957 l 1.82566,5.08576 c 3.074,6.22581 8.4181,13.93284 24.32039,16.69175 z"
       id="path5"
       sodipodi:nodetypes="cccsccccc"
       inkscape:label="body" />
    <path
       style="fill:#000000;fill-rule:evenodd;stroke:#000000;stroke-width:0.237921px;stroke-linecap:butt;stroke-linejoin:miter;stroke-opacity:1"
       d="m -347.26544,885.40013 -6.52022,-0.1304 c -1.33929,0.18867 -2.58209,0.55103 -3.0645,2.28207 l -2.54288,5.60739 -6.129,-2.54288 c -4.09757,-0.24769 -3.99756,3.51217 -1.89086,4.95536 l 7.95466,3.45571 c 2.03474,0.73744 3.20113,0.17235 3.84692,-1.17364 l 3.32531,-7.49824 4.69455,0.1304 z"
       id="path6"
       sodipodi:nodetypes="ccccccccccc"
       inkscape:label="leg" />
    <path
       style="fill:#000000;fill-rule:evenodd;stroke:#000000;stroke-width:0.237921px;stroke-linecap:butt;stroke-linejoin:miter;stroke-opacity:1"
       d="m -346.67863,901.70067 -6.71582,2.86889 c -1.21715,0.72342 -1.89049,1.60222 -1.89086,2.67329 l -0.1956,15.64851 -9.0631,5.73779 c -2.60522,2.47805 -0.8496,6.0266 2.73849,4.69455 l 10.04113,-6.45501 c 1.11119,-0.68539 1.73486,-1.51007 1.63005,-2.54288 l 0.13041,-15.45291 5.28137,-2.21687 z"
       id="path7"
       sodipodi:nodetypes="ccccccccccc"
       inkscape:label="leg" />
    <path
       style="fill:#000000;fill-rule:evenodd;stroke:#000000;stroke-width:0.237921px;stroke-linecap:butt;stroke-linejoin:miter;stroke-opacity:1"
       d="m -316.03362,872.29451 0.0652,51.18367 c 3.18039,-0.5384 6.55215,-0.90708 9.61482,-2.40068 5.25857,-2.56447 11.24013,-6.00978 14.70557,-14.55187 l 1.76046,-4.89017 c 1.00646,-3.51143 0.98923,-7.36411 0.97803,-11.21476 l -0.2608,-5.21617 c -0.17388,-2.70484 -0.34775,-5.35783 -0.52162,-7.88946 -0.40256,-2.04085 -0.81798,-4.07702 -4.95536,-4.75976 z"
       id="path8"
       sodipodi:nodetypes="ccsccccccc"
       inkscape:label="body" />
    <path
       style="fill:#000000;fill-rule:evenodd;stroke:#000000;stroke-width:0.237921px;stroke-linecap:butt;stroke-linejoin:miter;stroke-opacity:1"
       d="m -291.64803,906.65603 5.47698,2.41248 -0.2608,15.12689 c 0.0891,1.1634 0.71544,2.09655 2.02126,2.73849 l 9.91073,6.38981 c 3.73684,1.65168 5.18263,-2.58494 2.80369,-4.36854 l -9.38911,-6.0638 0.1304,-15.84412 c -0.24432,-1.00526 -0.86595,-1.88475 -2.15167,-2.54288 l -6.91142,-2.8689 z"
       id="path9"
       sodipodi:nodetypes="ccccccccccc"
       inkscape:label="leg" />
    <path
       style="fill:#000000;fill-rule:evenodd;stroke:#000000;stroke-width:0.237921px;stroke-linecap:butt;stroke-linejoin:miter;stroke-opacity:1"
       d="m -288.90954,890.4207 h 4.75976 l 3.32531,7.30264 c 0.91636,1.68114 2.21616,1.82849 3.65132,1.43444 l 8.28067,-3.78172 c 2.3645,-1.09551 1.78508,-5.49211 -2.28207,-4.62935 l -5.80299,2.41248 -2.8689,-6.38981 c -0.49528,-0.88197 -1.29406,-1.54714 -2.9993,-1.56485 h -6.45501 z"
       id="path10"
       sodipodi:nodetypes="ccccccccccc"
       inkscape:label="leg" />
  </g>
</svg>
