<?xml version="1.0" encoding="UTF-8" standalone="no"?>
<!-- Created with Inkscape (http://www.inkscape.org/) -->

<svg
   width="120"
   height="120"
   viewBox="0 0 120 120"
   version="1.1"
   id="svg1"
   inkscape:version="1.4.2 (ebf0e940d0, 2025-05-08)"
   sodipodi:docname="ContactBiker.svg"
   xmlns:inkscape="http://www.inkscape.org/namespaces/inkscape"
   xmlns:sodipodi="http://sodipodi.sourceforge.net/DTD/sodipodi-0.dtd"
   xmlns="http://www.w3.org/2000/svg"
   xmlns:svg="http://www.w3.org/2000/svg">
  <sodipodi:namedview
     id="namedview1"
     pagecolor="#ffffff"
     bordercolor="#111111"
     borderopacity="1"
     inkscape:showpageshadow="0"
     inkscape:pageopacity="0"
     inkscape:pagecheckerboard="1"
     inkscape:deskcolor="#d1d1d1"
     inkscape:document-units="px"
     inkscape:zoom="1.8625"
     inkscape:cx="71.14094"
     inkscape:cy="57.986577"
     inkscape:window-width="1920"
     inkscape:window-height="1122"
     inkscape:window-x="0"
     inkscape:window-y="0"
     inkscape:window-maximized="1"
     inkscape:current-layer="layer2" />
  <defs
     id="defs1" />
  <g
     inkscape:label="BoundingBox"
     inkscape:groupmode="layer"
     id="layer1">
    <rect
       style="opacity:0;fill:#ffffff;stroke:#ffffff;stroke-width:2;stroke-linecap:round;stroke-linejoin:round"
       id="rect1"
       width="120"
       height="120"
       x="0"
       y="0"
       ry="0.40268457" />
  </g>
  <g
     inkscape:groupmode="layer"
     id="layer2"
     inkscape:label="Symbol"
     transform="translate(216.9629,-653.60689)"
     style="fill:#000000;stroke:#000000">
    <path
       style="fill:#000000;fill-rule:evenodd;stroke:#000000;stroke-width:0.614757px;stroke-linecap:butt;stroke-linejoin:miter;stroke-opacity:1"
       d="m -196.69514,695.24895 c -2.08117,1.69161 -3.64836,3.38322 -4.08463,5.07484 l 0.24756,36.14277 c 1.06529,3.30815 3.74994,4.99693 5.69372,7.42659 1.44724,4.55752 2.86274,9.1309 4.95106,13.36787 9.40702,5.43825 18.81405,7.34409 28.22107,11.01613 2.66855,0.4273 4.94722,0.0748 7.30282,-0.12378 9.93974,-2.16003 19.31901,-6.56197 28.96372,-9.90213 2.15574,-0.69113 3.23608,-2.45765 4.08463,-4.45596 0.70141,-2.94644 1.40281,-6.13213 2.10421,-9.40702 0.82517,-0.99021 1.48531,-1.98043 1.98042,-2.97064 1.55074,-1.80262 3.3469,-3.19621 3.96085,-6.56016 l 0.12378,-34.53367 c -0.76578,-2.54978 -2.37223,-4.04872 -4.45596,-4.95107 -3.38078,-19.23015 -11.78229,-34.76448 -38.74208,-36.63787 -21.61917,1.56627 -37.48027,10.60795 -40.35117,36.5141 z"
       id="path1"
       sodipodi:nodetypes="cccccccccccccccc"
       inkscape:label="outer" />
    <path
       style="fill:#ffffff;fill-rule:evenodd;stroke:#ffffff;stroke-width:0.614757px;stroke-linecap:butt;stroke-linejoin:miter;stroke-opacity:1"
       d="m -193.35317,702.9231 0.37133,31.1917 c 10.51825,5.7196 20.92843,11.64454 34.65744,11.26368 13.29479,-1.05712 25.24418,-5.81408 37.25676,-10.39724 l 0.24756,-31.93437 c -12.69736,5.64185 -25.35657,11.09297 -36.76165,10.27346 -7.71555,1.40699 -21.98569,-4.77556 -35.77144,-10.39723 z"
       id="path2"
       sodipodi:nodetypes="ccccccc"
       inkscape:label="inner" />
  </g>
</svg>
