<?xml version="1.0" encoding="UTF-8" standalone="no"?>
<!-- Created with Inkscape (http://www.inkscape.org/) -->

<svg
   width="120"
   height="120"
   viewBox="0 0 120 120"
   version="1.1"
   id="svg1"
   inkscape:version="1.4.2 (ebf0e940d0, 2025-05-08)"
   sodipodi:docname="ContactAfro.svg"
   xmlns:inkscape="http://www.inkscape.org/namespaces/inkscape"
   xmlns:sodipodi="http://sodipodi.sourceforge.net/DTD/sodipodi-0.dtd"
   xmlns="http://www.w3.org/2000/svg"
   xmlns:svg="http://www.w3.org/2000/svg">
  <sodipodi:namedview
     id="namedview1"
     pagecolor="#ffffff"
     bordercolor="#111111"
     borderopacity="1"
     inkscape:showpageshadow="0"
     inkscape:pageopacity="0"
     inkscape:pagecheckerboard="1"
     inkscape:deskcolor="#d1d1d1"
     inkscape:document-units="px"
     inkscape:zoom="2.6339728"
     inkscape:cx="-7.0236109"
     inkscape:cy="39.104428"
     inkscape:window-width="1920"
     inkscape:window-height="1122"
     inkscape:window-x="0"
     inkscape:window-y="0"
     inkscape:window-maximized="1"
     inkscape:current-layer="layer2" />
  <defs
     id="defs1" />
  <g
     inkscape:label="BoundingBox"
     inkscape:groupmode="layer"
     id="layer1">
    <rect
       style="opacity:0;fill:#ffffff;stroke:#ffffff;stroke-width:2;stroke-linecap:round;stroke-linejoin:round"
       id="rect1"
       width="120"
       height="120"
       x="0"
       y="0"
       ry="0.40268457" />
  </g>
  <g
     inkscape:groupmode="layer"
     id="layer2"
     inkscape:label="Symbol"
     transform="matrix(0.31600289,0,0,0.31600289,33.722538,40.459247)"
     style="stroke-width:6.23585;stroke-dasharray:none">
    <path
       style="display:inline;fill:#000000;fill-rule:evenodd;stroke:#000000;stroke-width:6.23585;stroke-linecap:butt;stroke-linejoin:miter;stroke-dasharray:none;stroke-opacity:1"
       d="M 36.130703,185.31181 C 6.086026,201.77266 -4.835915,183.57355 -11.484318,157.62866 -38.473064,162.47501 -49.632527,146.49335 -48.57974,114.44294 -74.06416,102.16788 -75.827595,82.59405 -62.974979,58.52298 -82.367723,34.99932 -75.601997,17.28866 -55.223697,2.60301 c -9.982085,-27.499654 3.997345,-42.020156 29.344141,-50.383333 1.591044,-26.222559 13.242643,-40.87548 44.293042,-33.219781 11.590437,-26.283736 30.315387,-28.488466 53.705317,-14.948902 19.83712,-13.480284 39.531857,-24.753634 56.473627,6.643956 24.73298,-9.095371 42.24632,-1.946579 49.276,28.790478 28.54791,2.304299 43.38657,14.890541 36.54176,43.739379 28.17415,14.345323 26.39063,34.238363 14.94891,55.919963 15.96886,22.6551 16.99317,42.10779 -8.30495,55.91997 8.13379,26.22898 1.61165,44.25065 -27.12949,49.82967 -0.69784,30.04308 -17.84553,38.49573 -42.07839,37.64909 -7.79642,5.21667 -13.61559,16.36509 -25.4685,9.41227"
       id="path6"
       sodipodi:nodetypes="cccccccccccccccc"
       inkscape:label="hair" />
    <path
       style="fill:#ffffff;fill-rule:evenodd;stroke:#000000;stroke-width:6.23585;stroke-linecap:butt;stroke-linejoin:miter;stroke-dasharray:none;stroke-opacity:1"
       d="m 8.664542,92.42435 c -4.567487,-4.01398 -9.134973,-2.12008 -13.70246,-2.34899 -9.13806,5.51948 -9.495532,15.76696 -5.089486,28.57942 5.646204,7.35168 13.039146,10.33651 20.749441,12.52796"
       id="path4"
       sodipodi:nodetypes="cccc"
       inkscape:label="ear" />
    <path
       style="fill:#ffffff;fill-rule:evenodd;stroke:#000000;stroke-width:6.23585;stroke-linecap:butt;stroke-linejoin:miter;stroke-dasharray:none;stroke-opacity:1"
       d="m 157.82561,94.77335 c 3.27768,-3.10162 7.43576,-4.44244 11.74497,-5.48099 3.35387,0.76988 6.30192,2.75718 8.61298,6.65548 -0.15223,6.91648 0.85617,13.83296 -1.1745,20.74944 -4.26226,8.22257 -11.96369,11.28638 -20.35794,13.31097"
       id="path5"
       sodipodi:nodetypes="ccccc"
       inkscape:label="ear" />
    <path
       style="fill:#ffffff;fill-rule:evenodd;stroke:#000000;stroke-width:6.23585;stroke-linecap:butt;stroke-linejoin:miter;stroke-dasharray:none;stroke-opacity:1"
       d="m 151.56163,59.14695 c 45.28541,191.46517 -172.966389,202.99767 -139.765097,0 -0.159975,0.005 3.221922,-6.88787 5.872662,-6.44168 19.540268,3.28914 34.835638,-5.4187 41.890198,-19.39725 22.87139,9.28086 36.41753,-3.58575 51.286357,-13.31096 9.05262,14.05849 18.88031,14.94071 28.97091,11.35347 1.56604,11.61442 6.01762,20.34331 11.74497,27.79642 z"
       id="path1"
       sodipodi:nodetypes="ccscccc"
       inkscape:label="face" />
  </g>
</svg>
