<?xml version="1.0" encoding="UTF-8" standalone="no"?>
<!-- Created with Inkscape (http://www.inkscape.org/) -->

<svg
   width="120"
   height="120"
   viewBox="0 0 120 120"
   version="1.1"
   id="svg1"
   inkscape:version="1.4.2 (ebf0e940d0, 2025-05-08)"
   sodipodi:docname="ContactDreadlocks.svg"
   xmlns:inkscape="http://www.inkscape.org/namespaces/inkscape"
   xmlns:sodipodi="http://sodipodi.sourceforge.net/DTD/sodipodi-0.dtd"
   xmlns="http://www.w3.org/2000/svg"
   xmlns:svg="http://www.w3.org/2000/svg">
  <sodipodi:namedview
     id="namedview1"
     pagecolor="#ffffff"
     bordercolor="#111111"
     borderopacity="1"
     inkscape:showpageshadow="0"
     inkscape:pageopacity="0"
     inkscape:pagecheckerboard="1"
     inkscape:deskcolor="#d1d1d1"
     inkscape:document-units="px"
     inkscape:zoom="1.4142136"
     inkscape:cx="-31.466252"
     inkscape:cy="26.162951"
     inkscape:window-width="1920"
     inkscape:window-height="1122"
     inkscape:window-x="0"
     inkscape:window-y="0"
     inkscape:window-maximized="1"
     inkscape:current-layer="layer2" />
  <defs
     id="defs1" />
  <g
     inkscape:label="BoundingBox"
     inkscape:groupmode="layer"
     id="layer1">
    <rect
       style="opacity:0;fill:#ffffff;stroke:#ffffff;stroke-width:2;stroke-linecap:round;stroke-linejoin:round"
       id="rect1"
       width="120"
       height="120"
       x="0"
       y="0"
       ry="0.40268457" />
  </g>
  <g
     inkscape:groupmode="layer"
     id="layer2"
     inkscape:label="Symbol"
     transform="translate(695.19416,-1143.2765)"
     style="fill:#000000;stroke:#000000">
    <path
       style="fill:#ffffff;stroke:#000000;fill-rule:evenodd;stroke-width:1;stroke-linecap:butt;stroke-linejoin:miter;stroke-opacity:1;stroke-dasharray:none"
       d="m -663.1996,1223.8167 c 3.69629,10.2473 7.8044,17.5403 12.3949,21.8627 10.06665,9.4787 17.3999,9.2613 25.02842,4.1149 8.90935,-6.0106 16.04791,-17.3004 18.25252,-31.0098 l 0.4546,-18.883 -5.625,-20.5 -20.125,-7.25 -20.375,11.75 -10,20.625 z"
       id="path4"
       sodipodi:nodetypes="cssc"
       inkscape:label="face" />
    <path
       style="fill:#000000;fill-rule:evenodd;stroke:#000000;stroke-width:0.225613px;stroke-linecap:butt;stroke-linejoin:miter;stroke-opacity:1"
       d="m -634.13039,1176.4922 c -5.63847,2.1043 -10.4177,4.5296 -14.31482,7.7786 -8.66066,7.2205 -13.17087,18.5434 -14.36061,37.0815 -0.14268,2.2231 -0.27897,4.3313 -0.26856,6.7516 0.033,7.68 0.23034,16.3768 2.29086,25.8658 0.88993,2.6839 -4.04193,7.1635 -7.04096,1.817 l -1.43847,-8.7066 c 0.12957,-22.0029 -3.12202,-44.656 11.09559,-63.9496 -9.5584,9.9058 -14.32467,30.2367 -12.38265,65.161 -0.38985,0.2775 -3.86485,2.6935 -5.8296,-2.1199 -0.017,-14.071 -0.72853,-28.2114 1.13564,-42.0943 l -2.30286,37.5128 c -2.27012,0.9305 -4.35722,1.0557 -5.56758,-2.6767 0.12672,-6.2335 -0.0538,-13.4619 0.67903,-19.9223 1.72686,-15.2237 2.25231,-29.106 12.91872,-42.0706 -5.1759,6.0144 -8.34937,12.2646 -10.14328,18.7456 -2.12,7.659 -2.85004,15.6694 -4.13917,22.1146 -1.08838,0.3617 -3.01303,-0.2112 -3.63404,-2.877 0.8516,-8.5587 1.24392,-18.8766 5.50819,-29.0289 1.93583,-4.6088 4.60334,-9.41 9.33081,-14.2767 -7.95371,6.6077 -12.21799,16.5836 -14.52698,28.836 -0.16363,0.1733 -2.70255,-0.1771 -2.58329,-3.5491 2.31714,-9.9615 6.70622,-19.2324 15.06612,-27.1796 4.1677,-0.9705 9.05586,-3.0993 13.92003,-5.1466 5.09069,-2.1427 10.25635,-2.3712 14.84945,-2.5758 -4.61825,-0.1643 -10.32223,0.424 -13.46697,1.3781 -6.11941,1.8567 -10.71569,3.7812 -15.07538,4.9058 -2.04764,-2.0599 -2.21051,-4.2434 0.21137,-5.8314 10.91264,-7.1552 27.71495,-4.7661 37.26466,-1.4367 -13.09862,-5.1376 -18.92992,-4.022 -26.21092,-4.1537 -0.38694,-0.3826 -0.35083,-3.0548 2.55125,-4.1104 2.44353,-0.8887 7.65377,-1.3845 13.27716,0.2238 3.88818,1.1121 7.98263,3.1814 11.74183,6.028 -3.02074,-2.0816 -3.53861,-3.4015 -9.4756,-6.3706 0.20938,-2.5964 2.72955,-5.6131 7.6019,-1.1243 l 2.99793,6.103 -2.35552,-6.2636 c 0.85734,-5.119 5.99345,-2.6454 6.79888,-1.0171 l -0.37474,8.4049 1.17775,-8.4585 c 2.85804,-2.1567 4.3663,-0.8777 5.67466,0.9101 l -2.7838,7.013 3.53328,-6.7453 c 6.68893,-2.045 9.35461,-0.5456 10.06448,2.6767 -4.84734,1.8749 -7.89073,4.5015 -11.08163,7.0666 4.0416,-2.6604 8.09831,-5.2301 12.41999,-6.21 13.26587,0.8373 22.03078,5.5832 16.06034,10.6533 -8.53197,-3.4334 -18.05949,-3.4276 -28.15913,-1.4454 8.31297,-1.0605 16.86901,-1.4324 26.8743,2.302 10.49396,10.551 14.82838,21.4319 15.86224,27.8382 0.35333,2.1894 -0.86301,3.6351 -2.47862,3.9077 -2.81649,-13.4179 -7.35662,-22.7319 -13.16948,-29.0157 3.28035,5.6397 7.09473,8.4228 10.0941,21.0459 1.28048,5.3891 2.72907,12.2856 3.34305,22.21 -0.4413,1.6039 -1.1299,3.0478 -3.96155,3.105 -1.99864,-13.8023 -3.92371,-27.6329 -11.34931,-39.3478 6.9524,12.7337 8.6953,27.6381 10.65336,42.4528 0.24113,6.0672 0.3241,12.1345 0.42827,18.2017 -0.73679,1.0935 -1.81962,4.3227 -5.88879,2.0878 -0.0657,-14.3699 -0.65054,-26.6633 -2.14137,-35.3327 0.48971,6.1357 0.99013,12.3372 1.05692,18.6131 0.078,7.3342 -0.10405,14.9354 0.22157,21.2745 -1.2954,3.5249 -3.27242,4.3234 -5.98102,2.1956 0.459,-22.4737 1.40099,-44.9668 -12.87056,-66.8512 11.25173,17.7725 13.60359,41.2258 11.47016,67.542 -0.34602,2.5309 -0.69237,5.0609 -1.17776,7.1737 -2.12461,3.7655 -6.93748,3.2823 -7.17362,-2.1414 1.04191,-3.7697 1.38756,-8.0463 1.93349,-13.8148 0.74009,-7.8198 1.08506,-11.2137 0.057,-20.103 -0.25048,-2.166 -0.49905,-5.3879 -0.55754,-7.1887 -0.45204,-13.9169 -4.08738,-25.4651 -10.85506,-31.058 10.35433,12.4237 8.85248,20.5516 9.90387,29.6046 -2.3523,1.3878 -3.90952,0.3021 -4.9787,-2.302 -0.71156,-14.3254 -4.92731,-26.118 -19.96836,-30.0864 z"
       id="path1"
       sodipodi:nodetypes="cssscccccccccscsccsccccscscsccsscccccccccccccccccsccscccccccsccccccssscccc"
       inkscape:label="hair outer" />
    <path
       style="fill:#ffffff;fill-rule:evenodd;stroke:#ffffff;stroke-width:0.225613px;stroke-linecap:butt;stroke-linejoin:miter;stroke-opacity:1"
       d="m -667.86233,1183.0302 c 5.77624,-7.3147 12.30874,-14.3268 32.44137,-15.8989 -4.53486,-0.4502 -9.59648,0.5701 -12.34184,1.3208 -12.19981,3.3358 -17.21414,9.884 -20.09953,14.5781 z"
       id="path2"
       sodipodi:nodetypes="ccsc"
       inkscape:label="hair inner" />
    <path
       style="fill:#ffffff;fill-rule:evenodd;stroke:#ffffff;stroke-width:0.225613px;stroke-linecap:butt;stroke-linejoin:miter;stroke-opacity:1"
       d="m -627.24437,1165.9578 h 0.45426 c 11.01679,0.4413 18.58169,6.4747 24.56762,15.0661 -0.6596,-1.6747 -1.23898,-3.3256 -2.34589,-4.4676 -3.56114,-3.6742 -6.42403,-6.2162 -9.14254,-7.6264 -7.23134,-3.7512 -10.05477,-3.3867 -13.53345,-2.9721 z"
       id="path3"
       sodipodi:nodetypes="cccssc"
       inkscape:label="hair inner" />
  </g>
</svg>
