<?xml version="1.0" encoding="UTF-8" standalone="no"?>
<!-- Created with Inkscape (http://www.inkscape.org/) -->

<svg
   width="120"
   height="120"
   viewBox="0 0 120 120"
   version="1.1"
   id="svg1"
   inkscape:version="1.4.2 (ebf0e940d0, 2025-05-08)"
   sodipodi:docname="DogPointing.svg"
   xmlns:inkscape="http://www.inkscape.org/namespaces/inkscape"
   xmlns:sodipodi="http://sodipodi.sourceforge.net/DTD/sodipodi-0.dtd"
   xmlns="http://www.w3.org/2000/svg"
   xmlns:svg="http://www.w3.org/2000/svg">
  <sodipodi:namedview
     id="namedview1"
     pagecolor="#ffffff"
     bordercolor="#111111"
     borderopacity="1"
     inkscape:showpageshadow="0"
     inkscape:pageopacity="0"
     inkscape:pagecheckerboard="1"
     inkscape:deskcolor="#d1d1d1"
     inkscape:document-units="px"
     inkscape:zoom="2.6339728"
     inkscape:cx="24.487725"
     inkscape:cy="4.1762011"
     inkscape:window-width="1920"
     inkscape:window-height="1122"
     inkscape:window-x="0"
     inkscape:window-y="0"
     inkscape:window-maximized="1"
     inkscape:current-layer="layer2" />
  <defs
     id="defs1" />
  <g
     inkscape:label="BoundingBox"
     inkscape:groupmode="layer"
     id="layer1">
    <rect
       style="opacity:0;fill:#ffffff;stroke:#ffffff;stroke-width:2;stroke-linecap:round;stroke-linejoin:round"
       id="rect1"
       width="120"
       height="120"
       x="0"
       y="0"
       ry="0.40268457" />
  </g>
  <g
     inkscape:groupmode="layer"
     id="layer2"
     inkscape:label="Symbol"
     transform="translate(361.9535,-234.06423)"
     style="fill:#000000;stroke:#000000">
    <path
       style="fill:#000000;fill-rule:evenodd;stroke:#000000;stroke-width:0.125971px;stroke-linecap:butt;stroke-linejoin:miter;stroke-opacity:1"
       d="m -310.01502,295.7251 c -4.55222,-0.31158 -8.86583,0.033 -12.48546,2.28607 2.3344,1.35333 -0.0504,6.8028 -5.01177,12.66131 -0.85753,0.82266 -2.07262,1.34039 -0.26378,3.38514 l 6.81425,8.08917 c 0.63518,0.52704 1.1946,1.08848 1.82641,1.19446 1.13729,0.19077 2.10717,0.10409 2.90669,0.14672 4.22941,0.2255 3.6289,-3.36373 -1.96344,-4.68236 l -2.87046,-3.0774 c -1.45527,-2.75508 0.0155,-5.46088 3.5299,-8.13314 3.98594,-2.35976 6.67949,-6.11394 7.51766,-11.86997 z"
       id="path1"
       sodipodi:nodetypes="cccccsscccc"
       inkscape:label="leg" />
    <path
       style="fill:#000000;fill-rule:evenodd;stroke:#000000;stroke-width:0.125971px;stroke-linecap:butt;stroke-linejoin:miter;stroke-opacity:1"
       d="m -274.08614,288.00465 c -1.08559,1.91304 -2.66964,3.57684 -4.41428,5.16035 9.79511,-2.49993 5.56745,2.32437 2.14497,4.8184 -0.48554,0.3593 -0.99996,0.66908 -1.08803,1.70976 l 0.0933,1.80301 c 0.78104,4.9392 3.58367,0.93109 5.10195,-0.79537 1.6533,-2.5403 4.27791,-5.71195 4.8768,-7.56688 1.59651,-5.71492 -3.58042,-4.65267 -6.71467,-5.12927 z"
       id="path2"
       sodipodi:nodetypes="cccccccc"
       inkscape:label="leg" />
    <path
       style="fill:#000000;fill-rule:evenodd;stroke:#000000;stroke-width:0.125971px;stroke-linecap:butt;stroke-linejoin:miter;stroke-opacity:1"
       d="m -332.76182,284.30537 c 0.73162,-1.29098 1.69362,-2.40276 2.79778,-3.40397 -2.46338,-1.3381 -4.52713,-2.25484 -5.92221,-3.01476 -1.22752,-0.66864 -2.34042,-0.60301 -2.76645,0.24807 -0.51061,1.03096 -0.21814,1.76908 0.61062,2.4934 1.3513,1.18101 3.52212,2.5705 5.28026,3.67726 z"
       id="path3"
       sodipodi:nodetypes="ccscsc"
       inkscape:label="tail" />
    <path
       style="fill:#000000;fill-rule:evenodd;stroke:#000000;stroke-width:0.125971px;stroke-linecap:butt;stroke-linejoin:miter;stroke-opacity:1"
       d="m -286.7147,297.21984 c 10.22162,-3.84327 13.01686,-9.66691 14.55172,-15.82664 1.15526,-0.77547 2.1096,-1.45047 3.03344,-2.11022 -3.30599,-1.12049 -2.95868,-5.52894 -2.85759,-9.7158 2.51595,15.40932 7.35216,5.85331 8.79257,-2.98947 0.47848,2.95285 0.79753,5.97257 -2.28607,10.4192 2.31538,-1.04826 4.63076,-2.05966 6.94614,-2.41796 2.60955,0.30416 4.76028,0.88361 6.19876,1.89041 3.28436,0.18472 3.7195,-2.09123 4.52818,-4.04459 3.22177,-3.3146 -3.60069,-4.08066 -7.6935,-5.53932 0.14106,-1.58358 -0.21029,-2.88101 -6.5976,-4.94843 -1.36538,-0.44194 -3.12538,-0.38001 -5.18445,-0.41504 -10.53222,7.43964 -18.36436,11.38893 -24.09166,12.61734 -6.66347,3.12022 -18.75159,3.01955 -28.79569,4.13251 -8.08179,-0.14764 -11.65512,5.72555 -15.03068,13.23919 -1.5702,3.49511 -2.26809,7.29529 -4.75262,9.70944 -1.20734,1.44651 -2.46323,2.8566 -4.13251,3.95666 -2.00601,0.6927 -3.68966,0.97537 -4.59469,1.40354 -1.32223,0.62554 -1.20376,2.6312 -1.3403,3.78408 -6.27554,6.09868 -6.88807,9.83651 -6.91297,10.64389 -0.0244,0.79238 0.10338,1.49538 0.59936,2.3048 0.87322,1.42507 2.55361,2.81515 3.57284,3.2315 0.7346,0.30008 3.35113,-0.5494 3.26873,-1.62824 -0.11211,-1.4679 -3.23467,-3.53115 -3.10281,-4.8741 0.15703,-1.59941 4.98559,-6.64195 7.71851,-8.22708 9.13771,-0.99892 14.64034,-6.17817 19.12385,-12.52942 7.81249,-7.18693 17.75684,-5.55901 31.69724,-0.26378 0.78215,6.12238 1.38379,12.34789 2.94552,18.02478 0.37541,2.66791 1.59409,4.10085 2.38205,5.58181 0.69271,1.30195 1.83455,2.1221 3.20123,2.90303 1.07159,0.11815 2.10583,0.21762 2.94551,0.21981 3.00737,-1.01738 0.61129,-2.25607 0.044,-3.38514 -6.58107,-4.17135 -4.47358,-16.09747 -4.17648,-25.14676 z"
       id="path4"
       sodipodi:nodetypes="ccccccccccscccsccscsssssccccscccc"
       inkscape:label="body" />
  </g>
</svg>
