<?xml version="1.0" encoding="UTF-8" standalone="no"?>
<!-- Created with Inkscape (http://www.inkscape.org/) -->

<svg
   width="120"
   height="120"
   viewBox="0 0 120 120"
   version="1.1"
   id="svg1"
   inkscape:version="1.4.2 (ebf0e940d0, 2025-05-08)"
   sodipodi:docname="DogTreed.svg"
   xmlns:inkscape="http://www.inkscape.org/namespaces/inkscape"
   xmlns:sodipodi="http://sodipodi.sourceforge.net/DTD/sodipodi-0.dtd"
   xmlns="http://www.w3.org/2000/svg"
   xmlns:svg="http://www.w3.org/2000/svg">
  <sodipodi:namedview
     id="namedview1"
     pagecolor="#ffffff"
     bordercolor="#111111"
     borderopacity="1"
     inkscape:showpageshadow="0"
     inkscape:pageopacity="0"
     inkscape:pagecheckerboard="1"
     inkscape:deskcolor="#d1d1d1"
     inkscape:document-units="px"
     inkscape:zoom="5.2679456"
     inkscape:cx="77.354633"
     inkscape:cy="52.202513"
     inkscape:window-width="1920"
     inkscape:window-height="1122"
     inkscape:window-x="0"
     inkscape:window-y="0"
     inkscape:window-maximized="1"
     inkscape:current-layer="layer2" />
  <defs
     id="defs1" />
  <g
     inkscape:label="BoundingBox"
     inkscape:groupmode="layer"
     id="layer1">
    <rect
       style="opacity:0;fill:#ffffff;stroke:#ffffff;stroke-width:2;stroke-linecap:round;stroke-linejoin:round"
       id="rect1"
       width="120"
       height="120"
       x="0"
       y="0"
       ry="0.40268457" />
  </g>
  <g
     inkscape:groupmode="layer"
     id="layer2"
     inkscape:label="Symbol"
     transform="matrix(1.6735651,0,0,1.7364689,-40.886313,-219.02504)"
     style="fill:#000000;stroke:#000000">
    <path
       style="display:inline;fill:#000000;fill-rule:evenodd;stroke:#000000;stroke-width:0.401208px;stroke-linecap:butt;stroke-linejoin:miter;stroke-opacity:1"
       d="m 39.075653,169.51135 c -4.972144,-0.30802 -7.093313,-3.36713 -9.632846,-5.64442 2.755084,6.46016 6.403241,6.81639 10.006031,7.46371 0.250255,1.29488 0.444982,2.69127 0.489805,3.6852 0.57435,1.24946 1.060297,2.51284 2.005873,3.63856 6.8e-5,1.60932 -0.202602,3.32002 -0.699723,5.17794 0.1755,1.7866 0.81978,3.64016 1.865926,5.55114 0.555164,0.66982 1.23654,0.45616 1.912576,0.27988 0.229872,-0.51312 0.142918,-1.02626 -0.373188,-1.53939 -2.663741,-3.45779 -1.494224,-4.34578 -1.166204,-5.17794 0.447006,2.96175 1.076466,5.5717 4.524874,3.91844 0.03791,-0.93133 -1.402596,-0.21253 -2.45328,-1.04672 -0.974574,-0.77376 -1.414142,-2.59411 -0.368935,-5.20413 0.667149,-1.31434 1.369845,-2.8064 2.09917,-4.43157 -0.378263,-2.13123 -0.711066,-4.32754 -0.72305,-6.76399 4.095405,-1.73991 7.586265,-4.38534 9.516229,-8.72321 2.829989,-0.25532 5.659975,-0.3319 8.489965,0.0933 0.636405,0.27984 1.228327,0.35211 1.679333,-0.23324 1.143351,-0.35304 2.161276,-0.57935 3.428641,-0.74637 0.342347,-0.45446 0.299405,-1.04622 -0.39651,-1.44609 -0.497579,0.0945 -1.181755,0.31387 -1.679333,0.46648 -1.359703,0.46589 -2.50307,0.13854 -3.685205,-0.0466 -0.313139,-0.23324 -0.203184,-0.39651 -0.02331,-0.62975 0.128287,-0.14836 2.220435,-0.11793 3.148754,-0.30321 0.09509,-0.24589 0.431704,-0.56893 0.983157,-0.66944 0.590137,-0.10757 1.440329,-0.40934 2.048974,-0.9166 0.166894,-0.90207 -0.09466,-0.71354 -0.536456,-1.18953 -1.858047,0.0312 -2.054623,0.674 -2.96216,1.37613 -2.490178,-0.0384 -5.164848,0.16912 -7.836891,0.37318 -0.767575,-0.22617 -1.34696,-0.61365 -1.679333,-1.21285 -0.569418,-1.92703 -0.672838,-3.90731 -3.312021,-5.59779 -0.587076,-1.33828 -1.175801,-2.6778 -2.005868,-4.19833 0.18019,-1.3964 0.373721,-2.78834 0.373183,-4.24498 0.449053,-0.88267 0.560123,-1.80757 0.51313,-2.75224 -0.512897,-0.43677 -1.137357,-0.20419 -1.77263,0.0933 0.500567,0.74182 0.140045,1.4174 -0.139946,2.09917 -0.662784,0.50145 -0.879275,0.11032 -1.119555,-0.23324 0.134497,-0.8759 0.26292,-1.75058 0.0933,-2.56565 -0.648365,-1.2411 -2.065067,-1.53408 -2.262437,-1.11955 -0.332553,0.94249 -0.294342,2.41902 -0.209916,3.77849 -0.570943,0.22256 -0.904099,0.54023 -1.166204,0.88632 -0.841486,2.79706 -0.303706,5.29856 -0.373184,7.93019 -0.07498,0.96123 -0.376999,1.89975 -1.07291,2.79889 1.305294,0.10241 2.079285,-0.27818 2.705595,-0.79302 -1.226461,5.01169 -1.026307,5.22476 -1.539388,7.83689 -2.986561,3.18167 -7.657324,6.94669 -6.694029,9.9827 z"
       id="path1"
       sodipodi:nodetypes="cccccccccccsccccccccccccsccccccccccccccccccccc"
       inkscape:label="dog" />
    <path
       style="display:inline;fill:#000000;fill-rule:evenodd;stroke:#000000;stroke-width:0.401208px;stroke-linecap:butt;stroke-linejoin:miter;stroke-opacity:1"
       d="m 54.645317,185.84106 c 2.867322,-1.10398 5.682852,-2.33743 8.303375,-4.0584 1.82589,-1.4719 3.547703,-3.02707 4.758112,-4.99135 0.225403,-5.1196 0.752939,-10.39027 1.212852,-15.62714 l 1.072907,-6.11091 -0.513129,-4.10504 0.606426,-1.81927 c -0.372144,-2.38336 -0.286655,-4.70133 -0.04665,-6.99723 -0.206097,-1.88991 0.05998,-3.70113 0.373187,-5.50448 -0.521966,-2.78622 -0.196729,-7.40571 0.323976,-7.4374 0.683724,-0.0416 10.044189,0.068 9.341206,0 -1.246156,4.33556 0.374621,19.39181 0.688646,29.18802 l -0.791644,14.57947 2.704789,9.89557 c 2.041644,3.12604 5.497483,4.83789 8.510191,6.99287 -1.571769,-0.36305 -1.94326,0.0541 -6.794958,-2.44091 0.905507,1.17583 1.616921,2.27404 1.649263,3.10061 -2.398635,-0.12738 -4.090221,-2.14024 -6.003314,-3.5624 -1.491142,4.64412 -2.839185,3.42115 -4.156139,0.92358 -0.733236,3.93337 -1.714611,6.08839 -3.496437,2.50688 -3.344964,1.76752 -3.798,0.80133 -3.100608,-1.64926 -7.903079,1.46209 -9.684547,1.21944 -3.694349,-1.18747 -3.4138,-0.77217 -13.219539,3.21418 -6.267192,-1.58329 z"
       id="path2"
       inkscape:label="tree"
       sodipodi:nodetypes="cccccccccscccccccccccccc" />
  </g>
</svg>
