<?xml version="1.0" encoding="UTF-8" standalone="no"?>
<!-- Created with Inkscape (http://www.inkscape.org/) -->

<svg
   width="120"
   height="120"
   viewBox="0 0 120 120"
   version="1.1"
   id="svg1"
   inkscape:version="1.4.2 (ebf0e940d0, 2025-05-08)"
   sodipodi:docname="Favorite.svg"
   xmlns:inkscape="http://www.inkscape.org/namespaces/inkscape"
   xmlns:sodipodi="http://sodipodi.sourceforge.net/DTD/sodipodi-0.dtd"
   xmlns="http://www.w3.org/2000/svg"
   xmlns:svg="http://www.w3.org/2000/svg">
  <sodipodi:namedview
     id="namedview1"
     pagecolor="#ffffff"
     bordercolor="#111111"
     borderopacity="1"
     inkscape:showpageshadow="0"
     inkscape:pageopacity="0"
     inkscape:pagecheckerboard="1"
     inkscape:deskcolor="#d1d1d1"
     inkscape:document-units="px"
     inkscape:zoom="7"
     inkscape:cx="52.357143"
     inkscape:cy="58.571429"
     inkscape:window-width="1920"
     inkscape:window-height="1122"
     inkscape:window-x="0"
     inkscape:window-y="0"
     inkscape:window-maximized="1"
     inkscape:current-layer="layer2" />
  <defs
     id="defs1" />
  <g
     inkscape:label="BoundingBox"
     inkscape:groupmode="layer"
     id="layer1">
    <rect
       style="opacity:0;fill:#ffffff;stroke:#ffffff;stroke-width:2;stroke-linecap:round;stroke-linejoin:round"
       id="rect1"
       width="120"
       height="120"
       x="0"
       y="0"
       ry="0.40268457" />
  </g>
  <g
     inkscape:groupmode="layer"
     id="layer2"
     inkscape:label="Symbol">
    <path
       id="rect7"
       style="opacity:1;fill:#ff0000;fill-opacity:1;stroke:#ff0000;stroke-width:3.76683;stroke-linecap:square;stroke-linejoin:miter;stroke-miterlimit:90;stroke-dasharray:none;stroke-opacity:1;paint-order:normal"
       d="M 12.45853,17.548163 A 32.707869,32.707866 45 0 0 3.9935043,32.211765 32.707869,32.707866 45 0 0 12.45853,63.805418 L 58.715782,17.548163 A 32.707869,32.707866 45 0 0 27.12213,9.0831396 32.707869,32.707866 45 0 0 12.45853,17.548163 Z m 48.825686,0 46.257254,46.257255 A 32.707866,32.707869 45 0 0 116.00649,32.211765 32.707866,32.707869 45 0 0 92.877868,9.0831396 32.707866,32.707869 45 0 0 61.284216,17.548163 Z M 13.838109,65.089635 59.999999,111.25152 106.16189,65.089635 59.999999,18.927745 Z" />
  </g>
</svg>
