<?xml version="1.0" encoding="UTF-8" standalone="no"?>
<!-- Created with Inkscape (http://www.inkscape.org/) -->

<svg
   width="120"
   height="120"
   viewBox="0 0 120 120"
   version="1.1"
   id="svg1"
   inkscape:version="1.4.2 (ebf0e940d0, 2025-05-08)"
   sodipodi:docname="Light.svg"
   xmlns:inkscape="http://www.inkscape.org/namespaces/inkscape"
   xmlns:sodipodi="http://sodipodi.sourceforge.net/DTD/sodipodi-0.dtd"
   xmlns="http://www.w3.org/2000/svg"
   xmlns:svg="http://www.w3.org/2000/svg">
  <sodipodi:namedview
     id="namedview1"
     pagecolor="#ffffff"
     bordercolor="#111111"
     borderopacity="1"
     inkscape:showpageshadow="0"
     inkscape:pageopacity="0"
     inkscape:pagecheckerboard="1"
     inkscape:deskcolor="#d1d1d1"
     inkscape:document-units="px"
     inkscape:zoom="1.3169864"
     inkscape:cx="31.511336"
     inkscape:cy="-81.246094"
     inkscape:window-width="1920"
     inkscape:window-height="1122"
     inkscape:window-x="0"
     inkscape:window-y="0"
     inkscape:window-maximized="1"
     inkscape:current-layer="layer3" />
  <defs
     id="defs1" />
  <g
     inkscape:label="BoundingBox"
     inkscape:groupmode="layer"
     id="layer1">
    <rect
       style="opacity:0;fill:#ffffff;stroke:#ffffff;stroke-width:2;stroke-linecap:round;stroke-linejoin:round"
       id="rect1"
       width="120"
       height="120"
       x="0"
       y="0"
       ry="0.40268457" />
  </g>
  <g
     inkscape:groupmode="layer"
     id="layer2"
     inkscape:label="Symbol">
    <g
       inkscape:groupmode="layer"
       id="layer3"
       inkscape:label="Bulb"
       transform="matrix(0.2431696,0,0,0.2431696,-3.1713518,-16.622938)">
      <path
         style="fill:#999999;fill-rule:evenodd;stroke:#999999;stroke-width:1px;stroke-linecap:butt;stroke-linejoin:miter;stroke-opacity:1"
         d="M 279.38926,510.11298 H 237.5509 v 2.62583 l 2.80089,2.62584 3.85123,2.45079 4.02629,1.5755 4.55145,1.05034 3.32606,0.35011 3.50112,0.17505 4.72651,-0.35011 3.85123,-1.05033 3.50112,-1.57551 2.97595,-1.92561 2.62584,-2.10067 z"
         id="path1" />
      <path
         style="fill:#999999;fill-rule:evenodd;stroke:#999999;stroke-width:1px;stroke-linecap:butt;stroke-linejoin:miter;stroke-opacity:1"
         d="m 304.77237,487.88087 -18.20581,0.17506 h -18.03077 l -17.68064,0.17505 -17.68065,-0.17505 -18.38088,1.05033 -3.151,1.57551 v 2.97595 l 2.97595,4.02628 3.32606,2.10068 4.55146,1.5755 8.92785,1.05034 h 10.85347 l 21.88199,-0.35012 h 15.22986 l 12.95414,-0.87528 5.07662,-1.22539 4.20134,-1.05033 2.8009,-2.10067 2.80089,-2.27573 1.05034,-2.27573 -0.35011,-2.62584 -1.92562,-1.22539 z"
         id="path2" />
      <path
         style="fill:#999999;fill-rule:evenodd;stroke:#999999;stroke-width:1px;stroke-linecap:butt;stroke-linejoin:miter;stroke-opacity:1"
         d="m 311.77461,464.94855 c -0.70022,-0.17506 -49.71588,-0.17506 -49.71588,-0.17506 l -29.75951,0.52517 -23.80761,0.35011 -4.55145,0.35011 -2.45079,2.45078 -0.87528,2.10068 -0.17505,2.80089 1.05033,2.97595 2.10067,1.75056 4.55146,1.75056 37.98714,0.17506 31.86017,-0.52517 26.25839,-0.87528 10.85347,-1.05034 3.67618,-1.40044 1.22539,-2.97596 -0.87528,-4.02628 -1.92562,-2.62584 -2.62584,-1.05034 z"
         id="path3" />
      <path
         style="fill:#999999;fill-rule:evenodd;stroke:#999999;stroke-width:1px;stroke-linecap:butt;stroke-linejoin:miter;stroke-opacity:1"
         d="m 308.44855,441.49105 c -0.70023,0 -20.83166,-1.5755 -20.83166,-1.5755 l -18.55593,0.70022 -21.88199,0.17506 -15.93009,0.70022 -19.95637,-0.17505 -4.72651,1.22539 -4.72651,1.40044 -1.57551,2.45079 -0.35011,2.80089 0.35011,2.45079 1.05034,2.27572 2.10067,1.92562 2.80089,0.87528 6.47707,0.35011 16.10515,-0.35011 31.86018,-0.35011 44.81432,-0.87528 9.1029,-0.87528 3.50112,-1.05034 1.57551,-2.10067 1.05033,-3.50112 -1.40045,-3.32606 -3.151,-2.10067 -3.85123,-1.05034 z"
         id="path4" />
      <path
         style="fill:#999999;fill-rule:evenodd;stroke:#999999;stroke-width:1px;stroke-linecap:butt;stroke-linejoin:miter;stroke-opacity:1"
         d="m 313.52517,418.03356 -16.2802,-0.87528 -23.10739,0.35011 -27.13366,0.35011 h -17.15549 l -11.02852,0.35011 -10.67841,0.17506 -4.72651,1.40045 -3.32606,1.92561 -1.57551,2.8009 -0.35011,2.45078 1.05034,3.67617 3.32606,1.75056 3.50112,0.52517 7.70246,0.87528 15.40492,-0.70022 31.68512,-0.17506 28.70918,-0.87528 16.98042,-0.17505 10.15324,-1.05034 2.10068,-1.40045 1.5755,-2.10067 0.70022,-2.10067 -1.75056,-3.67617 -2.27572,-2.10068 z"
         id="path5" />
      <path
         style="fill:#d4aa00;fill-rule:evenodd;stroke:#d4aa00;stroke-width:1px;stroke-linecap:butt;stroke-linejoin:miter;stroke-opacity:1"
         d="m 204.81544,406.47987 14.35458,1.40044 15.40492,0.35012 h 19.60627 l 14.00447,0.35011 17.85571,-0.70023 12.95414,-1.40044 14.70469,-1.05034 7.35235,-2.80089 3.15101,-2.45079 1.75056,-4.20134 1.40045,-7.70246 1.75056,-10.15324 3.151,-9.10291 4.55146,-10.15325 7.00223,-13.65436 6.65213,-8.05257 7.00224,-10.15325 9.1029,-11.55369 6.65213,-11.20358 5.60179,-11.20358 5.25168,-15.05481 3.151,-14.35458 1.05034,-14.00448 0.35011,-20.30648 -2.80089,-19.60627 -4.90157,-18.55593 -8.7528,-17.15548 -7.70246,-13.30425 -11.55369,-14.7047 -10.85347,-9.80313 -11.9038,-8.05257 -11.55369,-5.9519 -12.60403,-5.25168 -13.30425,-3.50112 -15.40492,-2.80089 -15.05481,-1.40045 -12.60403,0.35011 -12.25391,1.40045 -14.35459,2.80089 -12.95414,4.55146 -15.05481,7.35235 -11.9038,7.00223 -10.15324,8.7528 -11.55369,12.60403 -9.45302,12.25391 -6.65213,12.60403 -5.9519,13.65436 -3.85123,13.30425 -3.85123,14.7047 -0.70023,18.20582 0.70023,16.45525 2.45078,13.30425 4.55146,16.80537 6.30201,13.65437 8.7528,14.00447 8.05257,13.30425 9.45302,12.25392 7.00224,9.1029 6.30201,9.45302 5.25168,12.60403 3.85123,15.75503 1.40044,10.15325 1.75056,7.00224 4.20135,3.50111 z"
         id="path6" />
    </g>
  </g>
</svg>
