<?xml version="1.0" encoding="UTF-8" standalone="no"?>
<!-- Created with Inkscape (http://www.inkscape.org/) -->

<svg
   width="120"
   height="120"
   viewBox="0 0 120 120"
   version="1.1"
   id="svg1"
   inkscape:version="1.4.2 (ebf0e940d0, 2025-05-08)"
   sodipodi:docname="SkullAndCrossbones.svg"
   xmlns:inkscape="http://www.inkscape.org/namespaces/inkscape"
   xmlns:sodipodi="http://sodipodi.sourceforge.net/DTD/sodipodi-0.dtd"
   xmlns="http://www.w3.org/2000/svg"
   xmlns:svg="http://www.w3.org/2000/svg">
  <sodipodi:namedview
     id="namedview1"
     pagecolor="#ffffff"
     bordercolor="#111111"
     borderopacity="1"
     inkscape:showpageshadow="0"
     inkscape:pageopacity="0"
     inkscape:pagecheckerboard="1"
     inkscape:deskcolor="#d1d1d1"
     inkscape:document-units="px"
     inkscape:zoom="1.3169864"
     inkscape:cx="-151.4822"
     inkscape:cy="17.464114"
     inkscape:window-width="1920"
     inkscape:window-height="1122"
     inkscape:window-x="0"
     inkscape:window-y="0"
     inkscape:window-maximized="1"
     inkscape:current-layer="layer2" />
  <defs
     id="defs1" />
  <g
     inkscape:label="BoundingBox"
     inkscape:groupmode="layer"
     id="layer1">
    <rect
       style="opacity:0;fill:#ffffff;stroke:#ffffff;stroke-width:2;stroke-linecap:round;stroke-linejoin:round"
       id="rect1"
       width="120"
       height="120"
       x="0"
       y="0"
       ry="0.40268457" />
  </g>
  <g
     inkscape:groupmode="layer"
     id="layer2"
     inkscape:label="Symbol">
    <path
       style="display:inline;fill:#ffffff;fill-rule:evenodd;stroke:#000000;stroke-width:10;stroke-linecap:butt;stroke-linejoin:miter;stroke-dasharray:none;stroke-opacity:1"
       d="m 602.24049,366.35682 -381.09955,152.58725 -12.53132,1.47427 -17.69128,-2.94854 -19.90268,-2.94855 -9.58277,7.37137 -4.42282,9.58277 5.15995,14.00559 12.53132,8.10851 8.1085,8.84563 4.42282,13.26846 -0.73713,12.53132 5.15995,16.217 7.37137,5.15996 13.26845,-3.68569 9.58278,-11.05704 11.79418,-17.69128 11.79418,-14.00559 8.84564,-5.15996 55.28524,-29.48545 218.19239,-76.6622 99.51342,-44.22818 15.47987,-5.15996 13.26845,3.68568 22.85123,-1.47427 17.69128,-7.37137 2.21141,-15.47986 -14.00559,-14.74273 -11.05705,-8.84564 -4.42282,-16.95414 -2.94855,-19.90268 -15.47986,-8.1085 -19.16555,15.47986 -8.1085,19.90269 z"
       id="path1"
       inkscape:label="bone"
       transform="matrix(0.18717922,0,0,0.18717922,-16.362924,-1.6695709)" />
    <path
       style="display:inline;fill:#ffffff;fill-rule:evenodd;stroke:#000000;stroke-width:10;stroke-linecap:butt;stroke-linejoin:miter;stroke-dasharray:none;stroke-opacity:1"
       d="m 597.81767,517.4698 -386.2595,-154.06152 -11.05705,-8.84564 -5.15996,-12.53132 -9.58277,-14.00559 -12.53132,-8.84564 -14.74273,-2.21141 -8.84564,10.31991 -2.21141,15.47987 -0.73713,13.26845 -4.42282,6.63423 -11.05705,12.53132 -8.84564,9.58277 -4.42282,11.79419 16.21701,10.31991 16.95414,-0.73714 16.95413,1.47428 9.58278,-3.68569 20.63982,3.68569 97.30202,45.70245 211.55816,73.71365 69.29083,34.64542 11.79418,12.53132 4.42282,12.53132 10.31991,14.74273 16.217,8.1085 12.53132,-7.37137 5.89709,-13.26845 v -13.26846 l 2.21141,-14.74273 14.00559,-9.58277 9.58278,-11.79419 -1.47427,-13.26845 -14.74273,-6.63423 -19.16555,-2.21141 -13.26846,2.94854 z"
       id="path2"
       sodipodi:nodetypes="ccccccccccccccccccccccccccccccccccccc"
       inkscape:label="bone"
       transform="matrix(0.18717922,0,0,0.18717922,-16.362924,-1.6695709)" />
    <g
       inkscape:groupmode="layer"
       id="layer4"
       inkscape:label="Skull"
       transform="matrix(0.18717922,0,0,0.18717922,-16.362924,-1.6695709)"
       style="display:inline">
      <path
         style="fill:#ffffff;stroke:#ffffff;stroke-width:0.569482;stroke-linecap:square;stroke-miterlimit:90"
         d="m 57.992247,103.10809 c -2.056005,-0.17884 -2.128948,-0.19273 -4.745683,-0.90374 l -2.657582,-0.7221 -1.850817,-0.98936 -1.850816,-0.98936 -1.471162,-1.80017 -1.471162,-1.800168 -0.918798,-2.03212 -0.918799,-2.03212 -0.389939,-2.082413 C 41.213135,87.063113 41.02301,84.504237 41.109844,81.578292 l 0.06056,-2.040643 -0.449453,-1.708446 c -0.505328,-1.920833 -1.109307,-4.982967 -0.982847,-4.982967 0.0456,0 0.378888,0.149049 0.740632,0.33122 l 0.657716,0.33122 0.204884,0.689102 c 0.696143,2.341389 1.086243,3.537358 1.643479,5.038579 l 0.628013,1.691896 0.0015,1.392799 c 0.0013,1.264595 0.04393,1.617465 0.46288,3.833597 l 0.461422,2.440797 0.747268,0.842109 c 0.709182,0.799186 0.807739,0.872403 1.93369,1.436519 0.652531,0.326926 1.678599,0.861299 2.280151,1.187494 1.010079,0.547723 1.235112,0.626816 2.942323,1.034142 1.016727,0.242584 2.645442,0.569338 3.619367,0.726123 1.583314,0.254885 1.993168,0.285063 3.871519,0.285063 1.947494,0 2.340007,-0.03143 5.380527,-0.430836 l 3.279781,-0.430837 1.818041,-0.722746 c 1.720544,-0.683986 1.893464,-0.776613 3.224475,-1.727231 l 1.406435,-1.004486 0.719892,-1.36799 0.719893,-1.36799 0.162828,-1.670465 c 0.144008,-1.477376 0.2401,-1.961199 0.831322,-4.185677 0.942764,-3.547158 1.787085,-7.403838 1.640687,-7.494316 -0.06711,-0.04148 0.443878,-0.303241 1.245024,-0.637794 0.747369,-0.312095 1.370629,-0.559421 1.385024,-0.549613 0.03383,0.02305 -1.115428,3.72399 -1.980499,6.377756 l -0.673695,2.066683 0.06064,3.559262 c 0.0648,3.803721 0.03688,4.180627 -0.561195,7.574557 l -0.138901,0.78823 -1.751995,2.533748 -1.751996,2.533748 -2.071801,1.420116 -2.071802,1.420115 -2.657583,0.98328 -2.657582,0.98329 -2.372842,0.27601 c -2.719362,0.31631 -2.397548,0.31164 -5.125338,0.0744 z"
         id="path25"
         transform="matrix(5.3424734,0,0,5.3424734,87.418486,8.9196381)" />
      <path
         style="fill:#ffffff;stroke:#ffffff;stroke-width:0.569482;stroke-linecap:square;stroke-miterlimit:90"
         d="m 46.621521,87.984575 c -0.230293,-0.289124 -0.315777,-0.596876 -0.639488,-2.30223 -0.337067,-1.775718 -0.373775,-2.117865 -0.374839,-3.493752 l -0.0012,-1.525256 -0.667622,-1.792019 c -0.704613,-1.89131 -1.371904,-3.922281 -1.309273,-3.984912 0.02049,-0.02049 0.463002,0.31605 0.98335,0.747878 0.78986,0.65549 1.010838,0.901539 1.338204,1.490029 0.354403,0.637093 0.408622,0.825847 0.563727,1.962496 0.107187,0.785496 0.212611,1.257606 0.280827,1.257606 0.140747,0 0.232739,3.81101 0.150652,6.241146 l -0.05853,1.732749 z"
         id="path26"
         transform="matrix(5.3424734,0,0,5.3424734,87.418486,8.9196381)" />
      <path
         style="fill:#ffffff;stroke:#ffffff;stroke-width:0.569482;stroke-linecap:square;stroke-miterlimit:90"
         d="m 73.61976,85.707037 c 0.0052,-1.409468 0.03618,-3.33147 0.06882,-4.271115 0.05763,-1.659087 0.06529,-1.709293 0.265153,-1.737761 0.194968,-0.02777 0.203103,-0.06529 0.154364,-0.711853 -0.07142,-0.94746 0.272957,-1.92645 1.024702,-2.913008 0.445997,-0.585307 0.662171,-0.776114 1.216033,-1.073342 0.370485,-0.198819 0.673609,-0.337389 0.673609,-0.307935 0,0.233255 -0.895789,3.987854 -1.469582,6.159588 -0.609768,2.307899 -0.725714,2.877536 -0.850052,4.176272 l -0.143976,1.50386 -0.474272,0.868982 -0.474272,0.868981 z"
         id="path27"
         transform="matrix(5.3424734,0,0,5.3424734,87.418486,8.9196381)" />
      <path
         style="fill:#ffffff;stroke:#ffffff;stroke-width:0.569482;stroke-linecap:square;stroke-miterlimit:90"
         d="m 70.428465,84.212147 c -0.03541,-0.691684 -0.05046,-1.61694 -0.03345,-2.056124 l 0.03092,-0.798518 0.944453,-0.316366 c 0.519449,-0.174002 1.021305,-0.340758 1.115235,-0.370571 0.160332,-0.05089 0.170783,0.05582 0.170783,1.743687 0,0.98884 -0.02477,1.921734 -0.05504,2.073097 -0.0502,0.251022 -0.140954,0.306276 -1.032745,0.628803 -0.537738,0.194479 -0.999772,0.353598 -1.026743,0.353598 -0.02697,0 -0.07801,-0.565923 -0.113414,-1.257606 z"
         id="path28"
         transform="matrix(5.3424734,0,0,5.3424734,87.418486,8.9196381)" />
      <path
         style="fill:#ffffff;stroke:#ffffff;stroke-width:0.569482;stroke-linecap:square;stroke-miterlimit:90"
         d="m 70.495165,88.493013 0.02569,-1.907182 0.996593,-0.367077 c 0.548127,-0.201892 1.007272,-0.367588 1.020322,-0.368212 0.01305,-6.24e-4 0.02373,0.744152 0.02373,1.655059 v 1.656193 l -0.599538,0.427821 c -0.329745,0.235302 -0.800448,0.513942 -1.046007,0.6192 l -0.44647,0.19138 z"
         id="path29"
         transform="matrix(5.3424734,0,0,5.3424734,87.418486,8.9196381)" />
      <path
         style="fill:#ffffff;stroke:#ffffff;stroke-width:0.569482;stroke-linecap:square;stroke-miterlimit:90"
         d="m 67.078226,89.544513 0.02573,-1.929788 1.115344,-0.328887 c 0.613439,-0.180888 1.130736,-0.31114 1.149548,-0.289449 0.01881,0.02169 0.06002,0.878768 0.09158,1.904613 l 0.05738,1.865175 -0.732361,0.291205 c -0.402798,0.160162 -0.957496,0.31949 -1.232662,0.354062 l -0.500302,0.06286 z"
         id="path30"
         transform="matrix(5.3424734,0,0,5.3424734,87.418486,8.9196381)" />
      <path
         style="fill:#ffffff;stroke:#ffffff;stroke-width:0.569482;stroke-linecap:square;stroke-miterlimit:90"
         d="m 66.961588,84.2383 v -2.360184 l 0.261013,-0.04947 c 0.143557,-0.02721 0.673457,-0.077 1.177555,-0.110648 l 0.916542,-0.06118 0.06211,0.696317 c 0.03416,0.382974 0.04883,1.332243 0.03259,2.109486 l -0.02951,1.413169 -0.759309,0.226567 c -0.417621,0.124612 -0.962188,0.287218 -1.21015,0.361347 l -0.45084,0.134779 z"
         id="path31"
         transform="matrix(5.3424734,0,0,5.3424734,87.418486,8.9196381)" />
      <path
         style="fill:#ffffff;stroke:#ffffff;stroke-width:0.569482;stroke-linecap:square;stroke-miterlimit:90"
         d="m 64.209092,84.539088 v -2.459185 l 0.583405,-0.06098 c 0.320873,-0.03354 0.698566,-0.06098 0.839317,-0.06098 h 0.255913 l 0.05739,2.39657 c 0.03156,1.318114 0.02759,2.423405 -0.0088,2.456203 -0.03642,0.0328 -0.439936,0.08841 -0.896708,0.123593 l -0.830495,0.06396 z"
         id="path32"
         transform="matrix(5.3424734,0,0,5.3424734,87.418486,8.9196381)" />
      <path
         style="fill:#ffffff;stroke:#ffffff;stroke-width:0.569482;stroke-linecap:square;stroke-miterlimit:90"
         d="m 64.209092,89.947287 v -1.903234 l 0.403383,-0.04917 c 0.221861,-0.02704 0.627617,-0.07384 0.90168,-0.103999 l 0.498297,-0.05483 v 1.889315 1.889314 l -0.498297,0.06178 c -0.274063,0.03398 -0.679819,0.08704 -0.90168,0.117918 l -0.403383,0.05614 z"
         id="path33"
         transform="matrix(5.3424734,0,0,5.3424734,87.418486,8.9196381)" />
      <path
         style="fill:#ffffff;stroke:#ffffff;stroke-width:0.569482;stroke-linecap:square;stroke-miterlimit:90"
         d="m 60.982028,90.073065 v -2.040644 l 0.59321,8.25e-4 c 0.326266,4.54e-4 0.817444,0.02776 1.091507,0.06068 l 0.498297,0.05985 v 1.919289 1.919289 l -0.498297,0.05985 c -0.274063,0.03292 -0.765241,0.06022 -1.091507,0.06068 l -0.59321,8.25e-4 z"
         id="path34"
         transform="matrix(5.3424734,0,0,5.3424734,87.418486,8.9196381)" />
      <path
         style="fill:#ffffff;stroke:#ffffff;stroke-width:0.569482;stroke-linecap:square;stroke-miterlimit:90"
         d="m 61.575238,87.013011 -0.59321,-0.0337 v -2.475645 -2.475645 l 0.355926,0.05883 c 0.195759,0.03236 0.686938,0.0593 1.091507,0.05988 l 0.735581,10e-4 v 2.467756 2.467755 l -0.498297,-0.01829 c -0.274063,-0.01006 -0.765241,-0.03345 -1.091507,-0.05199 z"
         id="path35"
         transform="matrix(5.3424734,0,0,5.3424734,87.418486,8.9196381)" />
      <path
         style="fill:#ffffff;stroke:#ffffff;stroke-width:0.569482;stroke-linecap:square;stroke-miterlimit:90"
         d="m 57.565136,84.568073 v -2.420299 l 0.403383,-5.68e-4 c 0.221861,-3.13e-4 0.75575,-0.028 1.186421,-0.06153 l 0.783038,-0.06096 v 2.481823 2.481823 h -1.186421 -1.186421 z"
         id="path36"
         transform="matrix(5.3424734,0,0,5.3424734,87.418486,8.9196381)" />
      <path
         style="fill:#ffffff;stroke:#ffffff;stroke-width:0.569482;stroke-linecap:square;stroke-miterlimit:90"
         d="m 57.565136,90.025608 v -2.0881 h 1.186421 1.186421 v 2.0881 2.088101 h -1.186421 -1.186421 z"
         id="path37"
         transform="matrix(5.3424734,0,0,5.3424734,87.418486,8.9196381)" />
      <path
         style="fill:#ffffff;stroke:#ffffff;stroke-width:0.569482;stroke-linecap:square;stroke-miterlimit:90"
         d="m 55.412607,91.746668 c -0.479158,-0.08524 -0.900078,-0.184386 -0.93538,-0.220321 -0.0353,-0.03594 -0.03279,-0.925009 0.0056,-1.975719 l 0.06976,-1.910381 0.391055,0.06057 c 0.21508,0.03332 0.658,0.104584 0.984265,0.158374 l 0.593211,0.0978 v 1.983443 c 0,1.529407 -0.02716,1.980899 -0.118642,1.972329 -0.06525,-0.0061 -0.51068,-0.08086 -0.989837,-0.166099 z"
         id="path38"
         transform="matrix(5.3424734,0,0,5.3424734,87.418486,8.9196381)" />
      <path
         style="fill:#ffffff;stroke:#ffffff;stroke-width:0.569482;stroke-linecap:square;stroke-miterlimit:90"
         d="m 55.405575,86.754681 c -0.37862,-0.06318 -0.712849,-0.139327 -0.742732,-0.16921 -0.02988,-0.02988 -0.02337,-1.066874 0.01448,-2.304425 l 0.06882,-2.250093 0.426151,0.05841 c 0.234383,0.03213 0.633745,0.05841 0.887472,0.05841 h 0.461321 v 2.372842 2.372841 l -0.213556,-0.01195 c -0.117456,-0.0066 -0.523335,-0.06364 -0.901955,-0.126827 z"
         id="path39"
         transform="matrix(5.3424734,0,0,5.3424734,87.418486,8.9196381)" />
      <path
         style="fill:#ffffff;stroke:#ffffff;stroke-width:0.569482;stroke-linecap:square;stroke-miterlimit:90"
         d="m 52.311896,86.007694 -0.934668,-0.294953 0.03299,-1.96446 c 0.01814,-1.080453 0.06013,-1.991576 0.09331,-2.024717 0.03317,-0.03314 0.556126,0.01386 1.162118,0.104445 l 1.101802,0.164701 -0.04985,1.097854 c -0.145254,3.199058 -0.148663,3.234017 -0.314293,3.222747 -0.0862,-0.0059 -0.577336,-0.143393 -1.091404,-0.305617 z"
         id="path40"
         transform="matrix(5.3424734,0,0,5.3424734,87.418486,8.9196381)" />
      <path
         style="fill:#ffffff;stroke:#ffffff;stroke-width:0.569482;stroke-linecap:square;stroke-miterlimit:90"
         d="m 52.175963,91.028937 c -0.484426,-0.119915 -0.899147,-0.2364 -0.921604,-0.258856 -0.02246,-0.02246 -0.01441,-0.927144 0.01788,-2.010418 l 0.05871,-1.969587 0.245955,0.05406 c 0.135275,0.02973 0.62998,0.177572 1.099346,0.328532 l 0.853391,0.274475 -0.0243,1.028221 c -0.01337,0.565522 -0.0501,1.4233 -0.08164,1.906174 -0.06645,1.017408 0.03479,0.96488 -1.247737,0.647402 z"
         id="path41"
         transform="matrix(5.3424734,0,0,5.3424734,87.418486,8.9196381)" />
      <path
         style="fill:#ffffff;stroke:#ffffff;stroke-width:0.569482;stroke-linecap:square;stroke-miterlimit:90"
         d="m 49.070363,89.636852 c -0.574227,-0.303827 -1.075754,-0.564883 -1.114504,-0.580125 -0.03875,-0.01524 -0.03875,-0.802767 0,-1.750057 l 0.07045,-1.722346 1.169132,0.441011 c 1.164107,0.439116 1.1689,0.442184 1.115235,0.713888 -0.02964,0.150082 -0.0539,0.993627 -0.0539,1.874545 0,0.880917 -0.03203,1.595779 -0.07118,1.588582 -0.03915,-0.0072 -0.541008,-0.261671 -1.115236,-0.565498 z"
         id="path42"
         transform="matrix(5.3424734,0,0,5.3424734,87.418486,8.9196381)" />
      <path
         style="fill:#ffffff;stroke:#ffffff;stroke-width:0.569482;stroke-linecap:square;stroke-miterlimit:90"
         d="m 49.157736,84.920777 -1.146505,-0.434424 -0.01865,-1.525215 c -0.01026,-0.838869 -0.04375,-1.706738 -0.07442,-1.928599 -0.03067,-0.221861 -0.01889,-0.402699 0.02619,-0.401863 0.04508,8.36e-4 0.615851,0.187929 1.268383,0.415762 1.399087,0.488495 1.274294,0.201011 1.163925,2.681321 l -0.07242,1.627441 z"
         id="path43"
         transform="matrix(5.3424734,0,0,5.3424734,87.418486,8.9196381)" />
      <path
         style="fill:#ffffff;stroke:#ffffff;stroke-width:1.61074;stroke-linecap:square;stroke-miterlimit:90"
         d="m 52.61745,80.769718 c -1.492651,-0.230196 -3.756893,-0.954988 -3.955621,-1.266209 -0.108477,-0.169882 -0.199081,-0.663353 -0.201342,-1.096604 -0.01456,-2.7908 -3.045749,-5.399635 -9.358259,-8.054325 -2.505379,-1.053624 -4.45118,-2.448279 -5.672276,-4.065608 -0.999963,-1.324443 -1.080321,-1.558304 -1.072446,-3.12109 0.01019,-2.021541 0.579507,-6.120596 1.185432,-8.53501 0.240856,-0.959731 0.656852,-3.416633 0.924435,-5.459782 0.440852,-3.366156 0.449501,-3.895283 0.09215,-5.637584 -0.216903,-1.057522 -0.727469,-2.587197 -1.134592,-3.399278 -1.475891,-2.94393 -1.75408,-6.136984 -0.67325,-7.727567 0.369127,-0.54322 0.671141,-1.072209 0.671141,-1.175531 0,-0.103322 -0.359832,-0.444081 -0.799626,-0.757242 L 31.82357,29.904504 30.878229,31.38231 c -0.808234,1.263472 -0.943972,1.703553 -0.93591,3.034324 0.01246,2.056107 0.550406,4.407229 1.461773,6.388735 1.287542,2.799391 1.479623,4.279823 1.02092,7.868564 -0.220611,1.725981 -0.44585,3.185565 -0.500532,3.243517 -0.221896,0.23517 -1.005847,-0.696677 -2.014603,-2.394663 -1.119911,-1.88509 -1.555312,-3.185646 -3.053241,-9.120102 l -0.914782,-3.624162 0.358927,-3.225135 C 26.864769,28.48565 28.130116,24.71675 30.671042,20.536329 L 32.751678,17.113194 35.57047,15.2179 c 4.026504,-2.707334 6.20751,-3.577579 12.483221,-4.980939 6.954862,-1.5552312 9.929694,-1.8617501 14.765101,-1.5213585 13.488819,0.9495544 22.34982,5.2450375 27.623409,13.3908005 2.676502,4.134214 3.740186,7.417744 4.195804,12.952214 0.383689,4.660747 0.414293,4.469206 -1.690306,10.578967 -0.997903,2.896961 -1.259138,3.379125 -2.593291,4.786464 l -1.483605,1.564988 -0.355125,-1.296531 c -0.578204,-2.110953 -0.259329,-6.189829 0.712601,-9.115262 1.079367,-3.248813 1.478814,-5.706252 1.29123,-7.943775 -0.125447,-1.496315 -0.298508,-2.021625 -0.907724,-2.755307 -0.413997,-0.498581 -0.813127,-0.914633 -0.886953,-0.92456 -0.07382,-0.0099 -0.490762,0.267224 -0.926529,0.615891 l -0.7923,0.633939 0.758612,0.901557 c 0.737208,0.876124 0.75491,0.96991 0.627463,3.324459 -0.09523,1.759369 -0.360438,3.084574 -0.968411,4.839009 -1.523992,4.39781 -1.72825,7.7361 -0.721992,11.799818 0.363772,1.469079 0.808411,4.097455 0.988083,5.840837 0.289882,2.812741 0.274266,3.392116 -0.138644,5.143592 -0.599326,2.542199 -2.110344,5.126059 -3.524268,6.02654 -0.590604,0.376137 -2.41058,1.250521 -4.044395,1.943079 -6.082456,2.578293 -7.400599,3.808972 -7.863544,7.34178 -0.172002,1.312583 -0.177691,1.318929 -1.649108,1.840475 -1.308822,0.463912 -2.360688,0.532776 -9.261745,0.606346 -4.28188,0.04565 -8.147651,0.02711 -8.590604,-0.04121 z m 3.942255,-5.172271 c 0.341828,-0.132813 1.195329,-0.795211 1.896671,-1.471995 l 1.275168,-1.230512 v -6.5817 c 0,-3.619933 -0.10098,-6.581696 -0.2244,-6.581696 -0.600175,0 -2.840446,2.127275 -3.658551,3.474016 -1.438598,2.368193 -1.932215,3.746153 -2.141323,5.977653 -0.219474,2.342119 0.120002,4.464395 0.926166,5.790025 0.552513,0.908534 0.902553,1.021965 1.926269,0.624209 z m 9.406582,-0.496776 c 0.913581,-1.041949 1.282035,-2.205973 1.282035,-4.050212 0,-2.335578 -0.927863,-5.635404 -2.167603,-7.7088 -0.829573,-1.387415 -3.146123,-3.610115 -3.762545,-3.610115 -0.14015,0 -0.244349,2.793202 -0.244349,6.550244 v 6.550241 l 1.498145,1.369222 c 1.618835,1.479525 2.646843,1.751925 3.394317,0.89942 z M 48.312483,62.934797 c 1.025832,-0.495653 4.199453,-4.399691 5.897955,-7.25538 1.49593,-2.515111 1.815283,-4.178029 1.214467,-6.323932 -0.452744,-1.617045 -1.953233,-3.206178 -3.258549,-3.451058 -0.945628,-0.177399 -7.737329,0.646609 -10.440717,1.26673 -2.581603,0.592188 -4.386111,2.463831 -4.681637,4.855812 -0.188157,1.522948 0.507795,3.889694 2.041052,6.941069 1.765287,3.513143 6.210909,5.424263 9.227429,3.966759 z m 28.627324,0.239659 c 1.624486,-0.561602 3.454773,-1.85772 4.235382,-2.999283 1.200169,-1.755127 2.769571,-6.003133 2.758242,-7.465914 -0.01725,-2.227385 -1.777058,-4.643012 -3.843291,-5.275565 -1.587767,-0.486075 -10.527807,-1.484389 -11.559568,-1.29083 -1.580865,0.296572 -3.429901,3.216019 -3.429901,5.415477 0,2.599452 5.172376,10.168172 7.851278,11.488744 1.037227,0.511304 2.72167,0.565106 3.987858,0.127371 z"
         id="path44"
         transform="matrix(5.3424734,0,0,5.3424734,87.418486,8.9196381)" />
      <path
         style="fill:none;fill-rule:evenodd;stroke:#000000;stroke-width:10;stroke-linecap:butt;stroke-linejoin:miter;stroke-dasharray:none;stroke-opacity:1"
         d="m 260.94631,297.80313 -12.53132,-11.05704 -12.53132,-21.37696 -8.1085,-29.48546 -7.37137,-30.2226 3.68569,-34.64541 c 0,0 9.58277,-31.69687 10.31991,-34.64541 0.73713,-2.94855 21.37695,-35.38255 22.85123,-38.3311 1.47427,-2.948546 28.74832,-20.639821 28.74832,-20.639821 l 24.3255,-11.794184 61.18233,-14.005592 30.22259,-2.948546 39.06824,2.211409 38.33109,6.634228 28.74832,10.319911 28.74833,14.742729 28.74832,25.799776 19.90268,30.95973 11.05705,31.69687 4.42282,47.17673 -6.63423,22.85123 -11.79418,33.17115 -21.37696,22.11409"
         id="path3" />
      <path
         style="fill:none;fill-rule:evenodd;stroke:#000000;stroke-width:10;stroke-linecap:butt;stroke-linejoin:miter;stroke-dasharray:none;stroke-opacity:1"
         d="m 261.68345,172.48993 -8.84564,14.0056 v 12.53132 l 3.68568,17.69127 8.1085,16.95414 3.68568,18.42841 -2.21141,19.16555 -3.68568,24.3255 c 0,0 -4.42282,14.74273 -4.42282,17.69128 0,2.94854 -3.68568,26.53691 -3.68568,26.53691 0,0 -0.73714,16.217 1.47427,19.16555 2.21141,2.94854 11.79419,15.47986 11.79419,15.47986 0,0 13.26845,9.58278 16.217,11.05705 2.94855,1.47427 20.63982,8.84564 20.63982,8.84564 l 17.69128,8.84564 12.53132,10.31991 5.15995,8.84563 2.21141,14.74273"
         id="path4" />
      <path
         style="fill:none;fill-rule:evenodd;stroke:#000000;stroke-width:10;stroke-linecap:butt;stroke-linejoin:miter;stroke-dasharray:none;stroke-opacity:1"
         d="m 557.27517,172.48993 7.37136,8.84564 1.47428,12.53132 -1.47428,15.47987 -3.68568,14.00559 -5.15996,13.26846 -2.2114,14.74272 -1.47428,17.69128 3.68568,16.217 2.94855,10.31991 2.94855,21.37696 1.47427,19.16555 -3.68568,16.95414 -5.89709,14.00559 -8.84564,12.53132 c 0,0 -15.47987,9.58277 -18.42841,10.31991 -2.94855,0.73714 -14.74273,5.89709 -18.42842,7.37136 -3.68568,1.47428 -19.90268,10.31992 -19.90268,10.31992 l -6.63423,8.84563 -3.68568,10.31991 0.73714,8.1085"
         id="path5" />
      <path
         style="fill:none;fill-rule:evenodd;stroke:#000000;stroke-width:10;stroke-linecap:butt;stroke-linejoin:miter;stroke-dasharray:none;stroke-opacity:1"
         d="m 532.21253,388.47092 -9.58278,30.95973 -7.37136,22.85123 v 16.217 c 0,0 0.73714,14.00559 0.73714,18.42841 0,4.42282 -4.42282,30.2226 -4.42282,30.2226 l -19.90269,28.74832 -23.58836,16.217 -30.2226,11.05705 -26.53691,2.94855 -26.53692,-2.21141 -29.48545,-8.10851 -20.63982,-11.05704 -16.95414,-20.63982 -10.31991,-22.85123 -4.42282,-23.58837 -1.47428,-22.85123 0.73714,-19.90268 -5.15996,-19.90269 -4.42281,-24.3255"
         id="path6"
         sodipodi:nodetypes="ccccsccccccccccccccc" />
      <path
         style="fill:none;fill-rule:evenodd;stroke:#000000;stroke-width:10;stroke-linecap:butt;stroke-linejoin:miter;stroke-dasharray:none;stroke-opacity:1"
         d="m 505.67562,401.73937 -5.8971,26.53692 -7.37136,28.01118 -1.47427,16.217 -6.63423,12.53132 -13.26846,9.58278 -18.42841,7.37136 -16.95414,2.21141 -16.95414,2.21141 h -22.11409 l -18.42841,-2.94854 -18.42841,-4.42282 -9.58278,-5.15996 -13.26846,-6.63423 -6.63422,-7.37136 -4.42282,-23.58837 v -15.47986 l -7.37137,-19.90269 -7.37136,-24.3255"
         id="path7" />
      <path
         style="fill:none;fill-rule:evenodd;stroke:#000000;stroke-width:5;stroke-linecap:butt;stroke-linejoin:miter;stroke-dasharray:none;stroke-opacity:1"
         d="m 340.55705,486.51007 0.73713,-27.27405 -0.73713,-23.58837 16.95414,5.89709 18.42841,2.94855 16.217,0.73714 17.69127,-0.73714 14.0056,0.73714 16.95414,-1.47428 18.42841,-1.47427 19.16555,-6.63423 -0.73714,51.59955"
         id="path8" />
      <path
         style="fill:none;fill-rule:evenodd;stroke:#000000;stroke-width:5;stroke-linecap:butt;stroke-linejoin:miter;stroke-dasharray:none;stroke-opacity:1"
         d="m 477.66443,463.65884 -16.217,5.89709 -19.90269,5.89709 -16.95414,1.47427 -13.26845,-0.73713 h -20.63982 l -14.74273,-2.21141 -19.16555,-5.89709 -15.47987,-5.8971"
         id="path9" />
      <path
         style="fill:none;fill-rule:evenodd;stroke:#000000;stroke-width:5;stroke-linecap:butt;stroke-linejoin:miter;stroke-dasharray:none;stroke-opacity:1"
         d="m 359.7226,440.80761 -1.47428,56.7595"
         id="path10" />
      <path
         style="fill:none;fill-rule:evenodd;stroke:#000000;stroke-width:5;stroke-linecap:butt;stroke-linejoin:miter;stroke-dasharray:none;stroke-opacity:1"
         d="m 377.41387,443.75615 -2.21141,58.97092"
         id="path11" />
      <path
         style="fill:none;fill-rule:evenodd;stroke:#000000;stroke-width:5;stroke-linecap:butt;stroke-linejoin:miter;stroke-dasharray:none;stroke-opacity:1"
         d="m 392.1566,444.49329 v 59.70805"
         id="path12" />
      <path
         style="fill:none;fill-rule:evenodd;stroke:#000000;stroke-width:5;stroke-linecap:butt;stroke-linejoin:miter;stroke-dasharray:none;stroke-opacity:1"
         d="m 410.58501,443.75615 v 62.6566"
         id="path13" />
      <path
         style="fill:none;fill-rule:evenodd;stroke:#000000;stroke-width:5;stroke-linecap:butt;stroke-linejoin:miter;stroke-dasharray:none;stroke-opacity:1"
         d="m 427.53915,444.49329 v 59.70805"
         id="path14" />
      <path
         style="fill:none;fill-rule:evenodd;stroke:#000000;stroke-width:5;stroke-linecap:butt;stroke-linejoin:miter;stroke-dasharray:none;stroke-opacity:1"
         d="m 442.28188,442.28188 0.73714,61.18233"
         id="path15" />
      <path
         style="fill:none;fill-rule:evenodd;stroke:#000000;stroke-width:5;stroke-linecap:butt;stroke-linejoin:miter;stroke-dasharray:none;stroke-opacity:1"
         d="m 460.71029,440.80761 0.73714,56.7595"
         id="path16" />
      <path
         style="fill:#000000;fill-rule:evenodd;stroke:#000000;stroke-width:1px;stroke-linecap:butt;stroke-linejoin:miter;stroke-opacity:1"
         d="m 406.04144,394.57428 -0.26062,-65.93612 -4.69111,2.60617 -5.73357,5.21234 -4.69111,4.43049 -3.64864,5.73358 -4.16987,6.77604 -3.12741,7.03666 c 0,0 -2.60617,5.73358 -2.86679,6.77605 -0.26062,1.04247 -1.04247,8.60036 -1.04247,8.60036 l -1.30308,9.90345 1.04247,9.1216 1.5637,7.03666 1.5637,4.95173 2.08494,3.38802 2.60617,2.34555 3.90926,-0.26061 3.90925,-1.30309 5.21234,-4.43049 4.43049,-3.90926 3.90926,-4.43049 z"
         id="path17" />
      <path
         style="fill:#000000;fill-rule:evenodd;stroke:#000000;stroke-width:1px;stroke-linecap:butt;stroke-linejoin:miter;stroke-opacity:1"
         d="m 414.38118,328.89878 0.26062,66.45736 1.30309,3.1274 3.1274,2.86679 3.38802,3.64864 4.16988,3.38802 3.64864,2.60617 3.1274,0.78185 h 3.38802 l 2.86679,-2.34555 3.64864,-6.25481 1.82432,-4.95173 0.78185,-9.38221 -0.52123,-9.64283 -2.60617,-11.46716 -3.64864,-10.94591 -3.90926,-7.29728 -4.69111,-7.29728 -5.99419,-6.25481 -6.51543,-5.47296 z"
         id="path18" />
      <path
         style="fill:#000000;fill-rule:evenodd;stroke:#000000;stroke-width:1px;stroke-linecap:butt;stroke-linejoin:miter;stroke-opacity:1"
         d="m 350.26938,340.62655 7.29728,-8.60037 9.64283,-12.249 7.29728,-10.94592 6.51543,-11.72777 2.86678,-6.25481 0.26062,-8.60036 -1.04247,-8.07913 -2.60617,-6.51543 -3.90926,-6.51543 -4.43049,-3.64864 -7.29727,-2.60617 h -8.86099 l -9.38221,1.5637 -12.77024,1.56371 -13.03085,2.08493 -8.33975,1.30309 -8.86098,2.60617 -7.03666,4.43049 -5.21235,5.21234 -3.1274,4.43049 -1.04247,5.21234 -1.5637,8.07913 0.78185,4.69111 1.82432,5.9942 2.86679,7.55789 2.86679,7.03666 3.1274,7.29728 2.34555,4.16987 3.90926,4.69111 4.95173,4.43049 5.99419,4.43049 6.51543,2.86679 7.03666,2.34556 8.60036,0.52123 7.29728,-2.86679 3.64864,-1.30308 z"
         id="path19" />
      <path
         style="fill:#000000;fill-rule:evenodd;stroke:#000000;stroke-width:1px;stroke-linecap:butt;stroke-linejoin:miter;stroke-opacity:1"
         d="m 510.28828,262.1808 c -1.30309,-0.26062 -44.30491,-5.73358 -44.30491,-5.73358 l -8.86098,-1.04247 -7.81852,2.08494 -7.81851,9.1216 -3.1274,7.29728 -1.56371,6.77604 -0.26061,7.5579 2.60617,6.25481 2.86679,8.07913 5.99419,8.86098 4.43049,7.5579 5.73358,7.29728 6.77604,8.07913 5.99419,5.99419 6.25481,4.43049 5.21235,1.82432 6.51542,1.04247 6.51543,-1.30309 6.51543,-2.34555 6.77604,-3.64864 6.25481,-4.43049 4.43049,-4.95173 3.90926,-5.73357 4.43049,-9.90345 3.38802,-9.1216 2.86679,-8.33975 1.30309,-6.25481 -1.30309,-8.86098 -3.1274,-6.77604 -2.86679,-4.16988 -4.69111,-4.43049 -5.47296,-2.60617 -4.16987,-2.08494 z"
         id="path20" />
    </g>
  </g>
</svg>
