<?xml version="1.0" encoding="UTF-8" standalone="no"?>
<!-- Created with Inkscape (http://www.inkscape.org/) -->

<svg
   width="120"
   height="120"
   viewBox="0 0 120 120"
   version="1.1"
   id="svg1"
   inkscape:version="1.4.2 (ebf0e940d0, 2025-05-08)"
   sodipodi:docname="SmallGame.svg"
   xmlns:inkscape="http://www.inkscape.org/namespaces/inkscape"
   xmlns:sodipodi="http://sodipodi.sourceforge.net/DTD/sodipodi-0.dtd"
   xmlns="http://www.w3.org/2000/svg"
   xmlns:svg="http://www.w3.org/2000/svg">
  <sodipodi:namedview
     id="namedview1"
     pagecolor="#ffffff"
     bordercolor="#111111"
     borderopacity="1"
     inkscape:showpageshadow="0"
     inkscape:pageopacity="0"
     inkscape:pagecheckerboard="1"
     inkscape:deskcolor="#d1d1d1"
     inkscape:document-units="px"
     inkscape:zoom="1.8625"
     inkscape:cx="-28.724832"
     inkscape:cy="10.201342"
     inkscape:window-width="1920"
     inkscape:window-height="1122"
     inkscape:window-x="0"
     inkscape:window-y="0"
     inkscape:window-maximized="1"
     inkscape:current-layer="layer2" />
  <defs
     id="defs1" />
  <g
     inkscape:label="BoundingBox"
     inkscape:groupmode="layer"
     id="layer1">
    <rect
       style="opacity:0;fill:#ffffff;stroke:#ffffff;stroke-width:2;stroke-linecap:round;stroke-linejoin:round"
       id="rect1"
       width="120"
       height="120"
       x="0"
       y="0"
       ry="0.40268457" />
  </g>
  <g
     inkscape:groupmode="layer"
     id="layer2"
     inkscape:label="Symbol">
    <path
       style="display:inline;fill:#502d16;fill-rule:evenodd;stroke:#502d16;stroke-width:1px;stroke-linecap:butt;stroke-linejoin:miter;stroke-opacity:1"
       d="m 209.59172,317.53356 c -20.16022,29.39447 -81.08403,15.16808 -102.62863,-23.21029 2.33974,-1.08978 7.41238,-1.21301 11.12701,-0.16795 3.75889,1.05751 10.09465,8.86623 18.29857,15.32824 4.09286,3.22384 6.87888,6.71497 11.5662,9.43484 4.88648,2.83544 15.05718,6.91079 17.61998,7.44635 13.65749,2.8541 30.49876,1.25385 44.01687,-8.83119 z"
       id="path2"
       sodipodi:nodetypes="ccssssc"
       inkscape:label="arm"
       transform="matrix(0.27694235,0,0,0.27694235,-9.1522234,-9.1918268)" />
    <path
       style="display:inline;fill:#502d16;fill-rule:evenodd;stroke:#502d16;stroke-width:1px;stroke-linecap:butt;stroke-linejoin:miter;stroke-opacity:1"
       d="m 219.88332,285.53193 -5.14116,18.19179 c 12.37296,1.84041 21.83459,8.04781 27.88089,19.3782 l 11.271,7.71174 c -54.96617,-17.66169 -92.15416,37.16269 -48.84099,103.41634 -17.77147,-6.06615 -34.0214,-5.53894 -47.06136,8.89816 4.9834,-10.14205 13.40915,-16.1533 26.29899,-16.80763 -21.1729,-24.61975 -34.1674,-52.32316 -23.35669,-89.0023 l -5.17337,-1.60794 c -17.2777,36.99783 -4.24025,64.82134 18.29718,89.76986 -35.88399,-3.19919 -46.89935,6.93697 -46.51758,23.18464 h 171.04233 c 23.16464,-3.04491 32.82058,-7.12895 41.72247,-11.271 l -15.42347,-0.39547 v -2.25978 c 13.94338,-0.0644 24.95719,-6.31353 35.59262,-13.36143 l -21.55331,-1.38416 c 28.04925,-5.93791 38.99239,-17.27775 47.25909,-29.46278 -5.4916,3.43069 -10.88982,7.14155 -17.40084,7.514 32.31266,-24.61972 34.56957,-35.62929 39.94284,-48.05004 -6.23492,6.5129 -12.7626,12.44027 -20.56463,15.81894 24.42222,-25.83761 34.5006,-51.67521 32.03336,-77.51282 -3.49045,10.48476 -7.56882,20.01415 -15.22573,23.72841 13.7365,-30.13524 14.72584,-55.41441 6.32758,-77.11735 0.0602,13.68418 -1.55229,25.82438 -8.30495,33.21979 2.15532,-22.30338 -0.99085,-37.18467 -6.72305,-48.44552 -1.02691,6.86345 -0.96815,15.3554 -4.94342,17.79631 2.40601,-24.29861 -4.82147,-40.39093 -16.60989,-52.59799 2.19883,10.61891 3.11662,19.67209 0.59321,24.51937 -5.46616,-19.14457 -13.53791,-36.20467 -26.89221,-49.03873 1.29823,8.21624 1.46288,12.65391 1.18642,15.62121 -6.62634,-14.8294 -12.4142,-29.99419 -16.41215,-45.87494 -1.02712,6.6434 -1.74671,14.02285 -1.77963,20.16915 -10.54865,-60.836671 58.14233,-76.932384 91.94761,-25.90352 -9.29072,-27.977086 -24.43541,-53.147478 -71.77846,-62.880297 5.70348,-0.967026 11.83012,-0.876156 18.58726,0.790948 -21.49352,-12.6092 -46.5299,-13.881264 -75.93093,-1.186421 l 15.22574,-10.084577 c -14.10039,1.574763 -29.68867,9.398682 -49.03873,33.022045 -2.44608,-3.69167 7.13162,-14.540716 17.59858,-26.496731 -12.68388,10.982961 -23.41579,9.259341 -37.57,51.609303 -2.96515,-13.15467 5.20858,-27.594597 15.81895,-42.315673 -10.01538,7.915336 -19.788,12.614092 -31.83563,47.456833 -1.0703,-2.78711 -0.45692,-10.62526 0,-17.99405 -5.0585,10.265 -9.41013,7.9066 -11.27099,39.15189 -0.11214,0.84313 -0.66297,0.81969 -1.65903,-1.4244 -5.18519,33.25193 7.51273,61.03493 27.30975,82.5485 15.58683,16.93833 34.70353,30.12834 48.35553,42.95273 32.08149,30.13666 51.06209,112.8608 5.59977,160.54832 31.05257,-71.08585 22.89601,-138.38877 -49.0305,-174.64134 -8.64705,-6.7605 -17.26721,-13.45763 -36.10156,-44.23106 l 5.17338,3.07606 c -5.35981,-9.06059 -10.71961,-15.0955 -16.07942,-21.67226 l 4.47427,2.09732 c -20.64656,-19.9365 -24.67978,-22.19043 -20.83333,-54.5302 -2.23416,3.7573 -4.40074,7.10915 -6.99105,13.00335 l 2.37695,-30.76062 c -2.90403,4.6703 -5.99629,9.46608 -7.82997,13.42282 -0.32015,-3.97989 -0.16763,-9.37778 -0.13982,-14.40157 -1.74866,2.33035 -3.14164,4.6607 -3.77517,6.99105 -1.18521,-5.01353 0.007,-12.40473 0.55928,-19.155479 -12.46369,10.857809 -17.83679,33.533269 -20.27405,61.101789 -0.90491,0.44669 -1.78133,0.92188 -3.77517,0.27964 -0.36708,-34.6437 -0.26031,-39.90904 -0.27964,-52.99217 -1.26994,2.28932 -2.23705,3.82156 -4.19463,7.82998 -0.62964,-3.50225 -1.16929,-7.21449 -0.6991,-13.283 -12.3483,16.86314 -18.76919,37.09677 -12.16443,64.73714 -37.601056,25.05685 -35.331107,50.7088 -39.144192,76.26995 2.542085,5.35135 8.249645,6.1806 14.434786,6.32758 43.106186,15.87917 65.766286,-1.41832 81.072086,-30.64921 10.01868,33.22464 -31.30698,54.46045 -42.16347,51.23794 -24.80248,-7.36208 -45.804978,-11.72634 -51.563771,11.44463 -2.993573,-13.99244 6.472164,-18.12126 15.818941,-22.34426 -25.270319,-10.29559 -38.737539,30.47027 -7.117694,34.2514 5.301166,0.1253 10.379924,-2.79166 16.778524,-5.59284 2.23307,-0.43279 7.54356,-0.0264 10.89801,3.0969 6.06562,5.64772 13.22382,10.25369 21.81539,16.34082 24.3598,17.25892 58.48743,14.58498 75.87238,-21.79729 z"
       id="path1"
       sodipodi:nodetypes="ccccccccccccccccccccccccccccccccccccccccccccccssccccccccccccccccccccccsccccssc"
       inkscape:label="body"
       transform="matrix(0.27694235,0,0,0.27694235,-9.1522234,-9.1918268)" />
    <g
       id="g4"
       inkscape:label="eye"
       transform="matrix(0.27694235,0,0,0.27694235,-9.1522234,-9.1918268)">
      <path
         style="display:inline;fill:#ffffff;fill-rule:evenodd;stroke:#ffffff;stroke-width:1px;stroke-linecap:butt;stroke-linejoin:miter;stroke-opacity:1"
         d="m 119.20984,218.21395 c -2.38722,-21.76214 10.8573,-21.89942 18.23896,-17.62459 6.83962,3.96093 6.18543,19.23905 -14.06104,17.9098 12.53568,-1.09123 18.62545,-10.41938 10.87552,-15.22573 -11.66806,-3.65668 -10.71463,7.87591 -15.05344,14.94052 z"
         id="path3"
         sodipodi:nodetypes="csccc"
         inkscape:label="corona" />
      <ellipse
         style="fill:#ffffff;fill-rule:evenodd;stroke:#ffffff;stroke-width:1.13773px;stroke-linecap:butt;stroke-linejoin:miter;stroke-opacity:1"
         id="path4"
         cx="132.23575"
         cy="205.92142"
         rx="1.3643022"
         ry="1.3992574"
         inkscape:label="pupil" />
    </g>
  </g>
</svg>
