<?xml version="1.0" encoding="UTF-8" standalone="no"?>
<!-- Created with Inkscape (http://www.inkscape.org/) -->

<svg
   width="120"
   height="120"
   viewBox="0 0 120 120"
   version="1.1"
   id="svg1"
   inkscape:version="1.4.2 (ebf0e940d0, 2025-05-08)"
   sodipodi:docname="TracBackPoint.svg"
   xmlns:inkscape="http://www.inkscape.org/namespaces/inkscape"
   xmlns:sodipodi="http://sodipodi.sourceforge.net/DTD/sodipodi-0.dtd"
   xmlns="http://www.w3.org/2000/svg"
   xmlns:svg="http://www.w3.org/2000/svg">
  <sodipodi:namedview
     id="namedview1"
     pagecolor="#ffffff"
     bordercolor="#111111"
     borderopacity="1"
     inkscape:showpageshadow="0"
     inkscape:pageopacity="0"
     inkscape:pagecheckerboard="1"
     inkscape:deskcolor="#d1d1d1"
     inkscape:document-units="px"
     inkscape:zoom="1.3169864"
     inkscape:cx="-29.233408"
     inkscape:cy="83.524022"
     inkscape:window-width="1920"
     inkscape:window-height="1122"
     inkscape:window-x="0"
     inkscape:window-y="0"
     inkscape:window-maximized="1"
     inkscape:current-layer="layer2" />
  <defs
     id="defs1" />
  <g
     inkscape:label="BoundingBox"
     inkscape:groupmode="layer"
     id="layer1">
    <rect
       style="opacity:0;fill:#ffffff;stroke:#ffffff;stroke-width:2;stroke-linecap:round;stroke-linejoin:round"
       id="rect1"
       width="120"
       height="120"
       x="0"
       y="0"
       ry="0.40268457" />
  </g>
  <g
     inkscape:groupmode="layer"
     id="layer2"
     inkscape:label="Symbol"
     transform="matrix(0.64727136,0,0,0.64727136,120.32692,-147.98197)"
     style="fill:#000000;stroke:#000000">
    <path
       style="fill:#000000;fill-rule:evenodd;stroke:#000000;stroke-width:0.239546px;stroke-linecap:butt;stroke-linejoin:miter;stroke-opacity:1"
       d="m -111.6613,366.37591 v 0 l -18.37192,4.37427 -1.57474,0.52491 -0.87485,0.69988 -0.52491,1.2248 -0.34994,1.22479 v 2.79953 l 0.69988,3.32444 0.52491,2.62456 0.69988,3.49942 0.87486,2.44958 0.52491,2.09965 1.22479,2.44959 1.04983,2.44959 1.04982,1.92468 1.57474,1.57473 1.22479,1.92468 1.92468,1.39977 2.27462,1.39976 1.92467,0.69988 2.62456,0.52491 2.27462,0.17498 3.32444,-0.52492 2.62456,-0.87485 1.92468,-1.74971 2.09965,-2.27462 1.22479,-3.49941 0.52491,-3.32444 v -3.32444 -2.44959 l -0.52491,-3.84935 -0.52491,-2.79953 -0.69988,-3.49942 -0.69988,-2.44959 -0.69989,-2.27462 -0.87485,-1.92467 -0.87485,-2.44959 -1.39977,-1.57474 -2.27462,-0.87485 z"
       id="path1" />
    <path
       style="fill:#000000;fill-rule:evenodd;stroke:#000000;stroke-width:0.239546px;stroke-linecap:butt;stroke-linejoin:miter;stroke-opacity:1"
       d="m -132.65778,363.05147 18.72186,-4.02433 1.92468,-0.52491 2.09964,-1.39976 0.52491,-1.39977 v -1.57473 l -0.34994,-2.27462 0.52492,-3.84936 0.34994,-3.67438 1.04982,-3.67438 1.39977,-3.67439 1.57473,-4.02432 1.39977,-4.02433 1.04982,-3.84935 0.52491,-2.62456 -0.17497,-6.47391 -0.17497,-5.94901 -0.34994,-4.7242 -1.74971,-6.99883 -1.57473,-4.54924 -0.87486,-2.9745 -2.27461,-3.67438 -2.09965,-2.62456 -1.92468,-2.27462 -3.32444,-2.9745 -3.49941,-1.39977 -2.44959,-0.52491 -5.07415,-0.69988 -5.07415,1.04983 -3.67438,1.92467 -3.49942,3.49941 -1.7497,3.14948 -2.44959,4.37426 -0.87486,3.49941 -0.87485,3.32445 -1.39976,5.77403 -0.87486,6.12397 v 5.949 l 0.52492,6.29895 0.34994,6.12397 0.69988,4.54924 1.39977,6.29894 1.39976,6.82385 1.39977,5.07415 0.87485,3.84936 1.92468,4.7242 1.22479,2.09965 1.7497,1.57474 1.74971,0.87485 z"
       id="path2" />
    <path
       style="fill:#000000;fill-rule:evenodd;stroke:#000000;stroke-width:0.239546px;stroke-linecap:butt;stroke-linejoin:miter;stroke-opacity:1"
       d="m -55.845669,329.98202 -17.847006,-4.1993 -2.799531,-0.17497 -1.924675,1.04982 -1.049824,1.92468 -1.399765,4.1993 -1.399765,4.19929 -0.874854,3.84936 -0.874852,4.89917 -0.524913,4.1993 0.174971,4.1993 0.17497,2.27461 2.099647,3.67439 2.27462,2.9745 2.79953,1.22479 3.674382,0.87486 1.924678,-0.17497 2.624561,-0.17497 3.32444,-0.87486 4.199295,-3.14947 2.974502,-3.49941 1.924676,-4.1993 1.749709,-4.37426 1.574734,-5.77404 0.699883,-4.89917 0.524913,-3.32444 -0.349942,-2.27462 -1.399765,-1.57474 z"
       id="path3" />
    <path
       style="fill:#000000;fill-rule:evenodd;stroke:#000000;stroke-width:0.239546px;stroke-linecap:butt;stroke-linejoin:miter;stroke-opacity:1"
       d="m -72.642852,318.08401 17.672035,3.84936 2.449591,0.17497 h 1.924676 l 1.399765,-0.34994 1.049824,-1.39977 1.749706,-3.49941 1.749706,-4.72421 2.27462,-8.22362 1.224793,-6.12397 1.574737,-6.82386 0.349941,-4.37426 0.699882,-6.99883 v -9.62338 l -0.52491,-7.52374 -1.574737,-7.87368 -2.449589,-5.949 -2.274619,-3.84936 -3.499413,-4.89917 -2.974499,-1.92468 -5.599063,-1.04982 -5.074147,0.17496 -4.724208,1.2248 -4.549236,3.32444 -3.849354,3.49942 -2.099648,4.19929 -3.674384,8.04865 -1.224793,6.47391 -0.699883,5.77404 -0.524913,7.34876 v 4.89918 l 1.399765,6.82386 1.224796,3.49941 1.224793,2.79953 1.574737,2.09965 1.049824,4.19929 0.874851,4.54924 0.349942,3.32444 -0.349942,3.32444 0.174972,2.27462 0.349942,1.92468 2.099647,1.22479"
       id="path4" />
  </g>
</svg>
