<?xml version="1.0" encoding="UTF-8" standalone="no"?>
<!-- Created with Inkscape (http://www.inkscape.org/) -->

<svg
   width="120"
   height="120"
   viewBox="0 0 120 120"
   version="1.1"
   id="svg1"
   inkscape:version="1.4.2 (ebf0e940d0, 2025-05-08)"
   sodipodi:docname="TreedQuarry.svg"
   xmlns:inkscape="http://www.inkscape.org/namespaces/inkscape"
   xmlns:sodipodi="http://sodipodi.sourceforge.net/DTD/sodipodi-0.dtd"
   xmlns="http://www.w3.org/2000/svg"
   xmlns:svg="http://www.w3.org/2000/svg">
  <sodipodi:namedview
     id="namedview1"
     pagecolor="#ffffff"
     bordercolor="#111111"
     borderopacity="1"
     inkscape:showpageshadow="0"
     inkscape:pageopacity="0"
     inkscape:pagecheckerboard="1"
     inkscape:deskcolor="#d1d1d1"
     inkscape:document-units="px"
     inkscape:zoom="2.6339728"
     inkscape:cx="48.785621"
     inkscape:cy="72.134382"
     inkscape:window-width="1920"
     inkscape:window-height="1122"
     inkscape:window-x="0"
     inkscape:window-y="0"
     inkscape:window-maximized="1"
     inkscape:current-layer="layer2" />
  <defs
     id="defs1" />
  <g
     inkscape:label="BoundingBox"
     inkscape:groupmode="layer"
     id="layer1">
    <rect
       style="opacity:0;fill:#ffffff;stroke:#ffffff;stroke-width:2;stroke-linecap:round;stroke-linejoin:round"
       id="rect1"
       width="120"
       height="120"
       x="0"
       y="0"
       ry="0.40268457" />
  </g>
  <g
     inkscape:groupmode="layer"
     id="layer2"
     inkscape:label="Symbol"
     transform="translate(0,-77.150845)"
     style="fill:#000000;stroke:#000000">
    <path
       style="display:inline;fill:#000000;fill-rule:evenodd;stroke:#000000;stroke-width:0.401208px;stroke-linecap:butt;stroke-linejoin:miter;stroke-opacity:1"
       d="m 49.284075,170.16726 c -4.972144,-0.30802 -7.093313,-3.36713 -9.632846,-5.64442 2.755084,6.46016 6.403241,6.81639 10.006031,7.46371 0.250255,1.29488 0.444982,2.69127 0.489805,3.6852 0.57435,1.24946 1.060297,2.51284 2.005873,3.63856 6.8e-5,1.60932 -0.202602,3.32002 -0.699723,5.17794 0.1755,1.7866 0.81978,3.64016 1.865926,5.55114 0.555164,0.66982 1.23654,0.45616 1.912576,0.27988 0.229872,-0.51312 0.142918,-1.02626 -0.373188,-1.53939 -2.663741,-3.45779 -1.494224,-4.34578 -1.166204,-5.17794 0.447006,2.96175 1.076466,5.5717 4.524874,3.91844 0.03791,-0.93133 -1.402596,-0.21253 -2.45328,-1.04672 -0.974574,-0.77376 -1.414142,-2.59411 -0.368935,-5.20413 0.667149,-1.31434 1.369845,-2.8064 2.09917,-4.43157 -0.378263,-2.13123 -0.711066,-4.32754 -0.72305,-6.76399 4.095405,-1.73991 7.586265,-4.38534 9.516229,-8.72321 2.829989,-0.25532 5.659975,-0.3319 8.489965,0.0933 0.636405,0.27984 1.228327,0.35211 1.679333,-0.23324 1.143351,-0.35304 2.161276,-0.57935 3.428641,-0.74637 0.342347,-0.45446 0.299405,-1.04622 -0.39651,-1.44609 -0.497579,0.0945 -1.181755,0.31387 -1.679333,0.46648 -1.359703,0.46589 -2.50307,0.13854 -3.685205,-0.0466 -0.313139,-0.23324 -0.203184,-0.39651 -0.02331,-0.62975 0.128287,-0.14836 2.220435,-0.11793 3.148754,-0.30321 0.09509,-0.24589 0.431704,-0.56893 0.983157,-0.66944 0.590137,-0.10757 1.440329,-0.40934 2.048974,-0.9166 0.166894,-0.90207 -0.09466,-0.71354 -0.536456,-1.18953 -1.858047,0.0312 -2.054623,0.674 -2.96216,1.37613 -2.490178,-0.0384 -5.164848,0.16912 -7.836891,0.37318 -0.767575,-0.22617 -1.34696,-0.61365 -1.679333,-1.21285 -0.569418,-1.92703 -0.672838,-3.90731 -3.312021,-5.59779 -0.587076,-1.33828 -1.175801,-2.6778 -2.005868,-4.19833 0.18019,-1.3964 0.373721,-2.78834 0.373183,-4.24498 0.449053,-0.88267 0.560123,-1.80757 0.51313,-2.75224 -0.512897,-0.43677 -1.137357,-0.20419 -1.77263,0.0933 0.500567,0.74182 0.140045,1.4174 -0.139946,2.09917 -0.662784,0.50145 -0.879275,0.11032 -1.119555,-0.23324 0.134497,-0.8759 0.26292,-1.75058 0.0933,-2.56565 -0.648365,-1.2411 -2.065067,-1.53408 -2.262437,-1.11955 -0.332553,0.94249 -0.294342,2.41902 -0.209916,3.77849 -0.570943,0.22256 -0.904099,0.54023 -1.166204,0.88632 -0.841486,2.79706 -0.303706,5.29856 -0.373184,7.93019 -0.07498,0.96123 -0.376999,1.89975 -1.07291,2.79889 1.305294,0.10241 2.079285,-0.27818 2.705595,-0.79302 -1.226461,5.01169 -1.026307,5.22476 -1.539388,7.83689 -2.986561,3.18167 -7.657324,6.94669 -6.694029,9.9827 z"
       id="path1"
       sodipodi:nodetypes="cccccccccccsccccccccccccsccccccccccccccccccccc"
       inkscape:label="dog" />
    <path
       style="display:inline;fill:#000000;fill-rule:evenodd;stroke:#000000;stroke-width:0.401208px;stroke-linecap:butt;stroke-linejoin:miter;stroke-opacity:1"
       d="m 54.645317,185.84106 c 2.867322,-1.10398 5.682852,-2.33743 8.303375,-4.0584 1.82589,-1.4719 3.547703,-3.02707 4.758112,-4.99135 0.225403,-5.1196 0.752939,-10.39027 1.212852,-15.62714 l 1.072907,-6.11091 -0.513129,-4.10504 0.606426,-1.81927 c -0.372144,-2.38336 -0.286655,-4.70133 -0.04665,-6.99723 -0.206097,-1.88991 0.05998,-3.70113 0.373187,-5.50448 0.12533,-6.06037 -5.809241,-9.17494 -11.87822,-12.22418 -3.763814,-2.75733 -7.746535,-5.30487 -13.589915,-6.06928 -7.091022,1.23811 -12.831016,-2.07725 -17.548146,-8.84004 -1.342258,-0.49135 -2.700043,-0.92058 -3.958228,-1.74822 -0.589151,-1.19094 0.03686,-0.63663 0.164927,-0.79165 1.29976,0.74136 2.356769,0.99721 3.397479,1.22046 -1.212048,-3.07086 -2.53825,-6.18739 -2.045085,-8.576163 1.763521,3.616993 2.54516,8.178493 5.805401,10.456323 0.324256,-2.36291 0.125083,-5.03987 0.03299,-7.65258 0.606811,0.31083 0.850862,1.63739 1.022542,3.16658 0.478549,-1.89795 1.13121,-2.83828 1.781203,-3.7933 -0.176547,1.66645 -0.561608,3.30311 -1.352395,4.88182 -0.192498,1.29708 -0.323952,2.83834 -0.428808,4.48599 2.723661,3.57955 6.55867,5.23314 10.951099,5.21167 l 1.286421,-0.52777 c -0.211448,-0.42458 -0.456414,-0.86592 -0.791644,-1.35239 -0.05505,-0.53876 0.03591,-1.07752 0.09895,-1.61628 -0.889133,-0.64765 -1.954658,-1.1284 -3.265538,-0.59373 -0.371156,-0.28903 -0.305349,-0.67889 0.131941,-1.15449 l 1.352394,-0.13194 0.494778,-0.49478 -0.09895,-0.49477 c -0.675944,0.15309 -1.377689,0.11265 -2.177026,-0.65971 0.377606,-0.19053 0.489135,-0.51409 0.626719,-0.82463 0.203956,-0.29082 0.352,-0.63756 0.494779,-0.98956 0.627635,-0.16828 0.956112,-0.43629 1.418364,-0.6597 -0.200993,-0.57248 0.08642,-0.73795 0.2309,-1.02254 0.908355,0.67916 1.729748,1.53226 2.374935,2.73777 0.822493,0.002 1.626783,0.0225 2.275982,0.19791 1.229237,1.73154 2.98427,2.48812 1.08851,6.39914 0.508342,-0.69172 4.447115,-2.20432 0.800851,-5.33081 -0.663811,-0.56918 -1.481024,-1.11355 -1.988319,-2.12386 0.166549,-2.2724 2.275408,-3.70033 4.420022,-5.11271 4.01e-4,1.56501 -0.270158,3.10742 -1.319409,4.58495 6.646907,6.03853 1.903684,8.17773 -1.913145,9.23587 5.40715,1.54247 8.87821,3.54049 12.897228,5.40957 -4.324883,-5.5655 -6.536819,-13.06788 -8.807056,-20.51681 -7.049291,-7.651601 -7.074114,-9.644602 -8.0484,-12.402449 -2.050185,-2.015354 -2.913714,-4.369753 -3.760316,-6.728988 h 1.253439 c 0.516319,1.534039 1.177181,2.995805 2.045087,4.354051 -0.140523,-1.42507 -0.444587,-2.768369 -0.263883,-4.354051 l 0.989556,0.06597 c 1.075499,10.47741 3.870724,12.356173 6.663016,14.249622 -1.556415,-4.562783 -1.885746,-9.476161 -2.242994,-14.381562 h 3.826286 c 0.764382,4.804403 1.703008,9.260311 2.638818,13.721857 4.996674,14.41463 9.604522,23.07459 13.72186,24.47504 3.970179,-7.61877 4.224641,-16.52998 4.22211,-25.530568 0.486934,-2.806359 1.640752,-5.390424 1.187467,-8.51019 0.07637,-1.241849 0.233885,-2.56484 0.659703,-4.156139 l 6.728987,0.13194 c -0.227453,4.354051 -0.470373,8.708102 -0.527761,13.062153 4.61622,-2.79479 3.859871,-8.544496 5.343607,-13.062153 l 2.9027,-0.13194 c -0.444325,5.040061 -1.960628,9.365472 -3.430466,13.721857 2.976544,0.142797 6.539982,-3.822658 9.8296,-5.871372 l -3.166579,3.430465 3.958227,-0.791646 c -1.590618,0.725697 -3.068657,2.126885 -4.815846,1.913144 -2.433741,1.906711 -4.899173,3.987725 -6.992869,4.024198 -1.006315,2.055551 -2.051594,4.033161 -3.232551,5.739431 -0.886441,4.87424 -0.709809,9.21694 -0.197911,13.392 -0.51069,2.44841 -0.983314,4.66844 -1.31941,6.06929 -0.207055,2.50775 -0.339935,4.83005 -0.197912,6.4651 -1.246156,4.33556 0.279707,18.37319 0.593732,28.1694 l -0.791644,14.57947 2.704789,9.89557 c 2.041644,3.12604 5.497483,4.83789 8.510191,6.99287 -1.571769,-0.36305 -1.94326,0.0541 -6.794958,-2.44091 0.905507,1.17583 1.616921,2.27404 1.649263,3.10061 -2.398635,-0.12738 -4.090221,-2.14024 -6.003314,-3.5624 -1.491142,4.64412 -2.839185,3.42115 -4.156139,0.92358 -0.733236,3.93337 -1.714611,6.08839 -3.496437,2.50688 -3.344964,1.76752 -3.798,0.80133 -3.100608,-1.64926 -7.903079,1.46209 -9.684547,1.21944 -3.694349,-1.18747 -3.4138,-0.77217 -13.219539,3.21418 -6.267192,-1.58329 z"
       id="path2"
       inkscape:label="tree"
       sodipodi:nodetypes="cccccccccccccccccccccccccccccccccccccccsccccccccccccccccccccccccccccccccccccccccccccccc" />
  </g>
</svg>
