<?xml version="1.0" encoding="UTF-8" standalone="no"?>
<!-- Created with Inkscape (http://www.inkscape.org/) -->

<svg
   width="120"
   height="120"
   viewBox="0 0 120 120"
   version="1.1"
   id="svg1"
   inkscape:version="1.4.2 (ebf0e940d0, 2025-05-08)"
   sodipodi:docname="WaterSource.svg"
   xmlns:inkscape="http://www.inkscape.org/namespaces/inkscape"
   xmlns:sodipodi="http://sodipodi.sourceforge.net/DTD/sodipodi-0.dtd"
   xmlns="http://www.w3.org/2000/svg"
   xmlns:svg="http://www.w3.org/2000/svg">
  <sodipodi:namedview
     id="namedview1"
     pagecolor="#ffffff"
     bordercolor="#111111"
     borderopacity="1"
     inkscape:showpageshadow="0"
     inkscape:pageopacity="0"
     inkscape:pagecheckerboard="1"
     inkscape:deskcolor="#d1d1d1"
     inkscape:document-units="px"
     inkscape:zoom="0.93125"
     inkscape:cx="-166.97987"
     inkscape:cy="-27.919463"
     inkscape:window-width="1920"
     inkscape:window-height="1122"
     inkscape:window-x="0"
     inkscape:window-y="0"
     inkscape:window-maximized="1"
     inkscape:current-layer="layer2" />
  <defs
     id="defs1" />
  <g
     inkscape:label="BoundingBox"
     inkscape:groupmode="layer"
     id="layer1">
    <rect
       style="opacity:0;fill:#ffffff;stroke:#ffffff;stroke-width:2;stroke-linecap:round;stroke-linejoin:round"
       id="rect1"
       width="120"
       height="120"
       x="0"
       y="0"
       ry="0.40268457" />
  </g>
  <g
     inkscape:groupmode="layer"
     id="layer2"
     inkscape:label="Symbol">
    <path
       style="fill:#0092da;fill-opacity:1;fill-rule:evenodd;stroke:#000080;stroke-width:2.67228px;stroke-linecap:butt;stroke-linejoin:miter;stroke-opacity:1"
       d="M 59.964315,27.264686 C 22.281336,23.648157 -9.4231344,19.745625 14.768627,74.25385 21.142299,81.549091 32.423391,80.695972 33.898223,87.463432 38.784273,109.88374 67.530149,100.10208 89.736075,74.97124 142.57202,3.4262865 96.712039,19.384941 59.964315,27.264686 Z"
       id="path1"
       sodipodi:nodetypes="ccscc"
       inkscape:label="water" />
    <path
       d="m 83.006161,48.201905 c 1.251459,-0.541707 1.835415,-0.468454 2.865395,0.07042 1.03004,0.538923 2.05996,0.538923 3.27479,-0.08077 1.21466,-0.619747 2.20334,-0.266456 2.75189,0.06602 0.45922,0.27831 0.91844,0.389636 1.605528,0.389636 v -2.478648 c -1.034978,0.0016 -1.478948,-0.35023 -1.478948,-0.35023 -1.0695,-0.660157 -2.04988,-0.529572 -3.39674,0.170992 -0.76826,0.399439 -1.98654,0.294346 -2.84904,-0.155291 -1.188446,-0.619636 -1.86129,-0.468122 -3.106852,0.08572 -0.965018,0.429046 -1.835969,0.428823 -2.797041,0 -1.24478,-0.555402 -1.886737,-0.705357 -3.075183,-0.08572 -0.862436,0.449642 -2.098532,0.554735 -2.866784,0.155291 -1.346926,-0.700564 -2.30944,-0.831149 -3.37905,-0.170992 0,0 -0.461667,0.35023 -1.478909,0.35023 v 2.478648 c 0.641511,0 1.142485,-0.125237 1.573869,-0.389636 0.547439,-0.335533 1.568794,-0.685762 2.783624,-0.06602 1.214838,0.61969 2.244813,0.61969 3.274794,0.08077 1.02998,-0.538869 1.600798,-0.635948 2.852257,-0.09424 1.214836,0.619691 2.41642,0.562692 3.4464,0.02384 z"
       id="path2-6"
       style="fill:#00ccff;stroke:#00ccff;stroke-width:0.0556623"
       inkscape:label="wave" />
    <path
       d="m 35.325169,49.549525 c 1.251459,-0.541707 1.835415,-0.468454 2.865391,0.07042 1.030039,0.538923 2.059961,0.538923 3.274792,-0.08077 1.214665,-0.619747 2.203343,-0.266456 2.751894,0.06602 0.459217,0.27831 0.918436,0.389636 1.605532,0.389636 v -2.478648 c -1.034988,0.0016 -1.478951,-0.35023 -1.478951,-0.35023 -1.069499,-0.660157 -2.049881,-0.529572 -3.396747,0.170992 -0.768252,0.399439 -1.98654,0.294346 -2.849032,-0.155291 -1.18845,-0.619636 -1.861294,-0.468122 -3.106856,0.08572 -0.965018,0.429046 -1.835969,0.428823 -2.797041,0 -1.24478,-0.555402 -1.886737,-0.705357 -3.075183,-0.08572 -0.862436,0.449642 -2.098532,0.554735 -2.866784,0.155291 -1.346926,-0.700564 -2.30944,-0.831149 -3.37905,-0.170992 0,0 -0.461667,0.35023 -1.478909,0.35023 v 2.478648 c 0.641511,0 1.142485,-0.125237 1.573869,-0.389636 0.547439,-0.335533 1.568794,-0.685762 2.783624,-0.06602 1.214838,0.61969 2.244813,0.61969 3.274794,0.08077 1.02998,-0.538869 1.600798,-0.635948 2.852257,-0.09424 1.214836,0.619691 2.41642,0.562692 3.4464,0.02384 z"
       id="path2"
       style="fill:#00ccff;stroke:#00ccff;stroke-width:0.0556623"
       inkscape:label="wave" />
    <path
       d="m 63.958775,71.147564 c 1.251459,-0.541707 1.835415,-0.468454 2.865391,0.07042 1.030039,0.538923 2.059961,0.538923 3.274792,-0.08077 1.214665,-0.619747 2.203343,-0.266456 2.751894,0.06602 0.459217,0.27831 0.918436,0.389636 1.605532,0.389636 v -2.478648 c -1.034988,0.0016 -1.478951,-0.35023 -1.478951,-0.35023 -1.069499,-0.660157 -2.049881,-0.529572 -3.396747,0.170992 -0.768252,0.399439 -1.98654,0.294346 -2.849032,-0.155291 -1.18845,-0.619636 -1.861294,-0.468122 -3.106856,0.08572 -0.965018,0.429046 -1.835969,0.428823 -2.797041,0 -1.24478,-0.555402 -1.886737,-0.705357 -3.075183,-0.08572 -0.862436,0.449642 -2.098532,0.554735 -2.866784,0.155291 -1.346926,-0.700564 -2.30944,-0.831149 -3.37905,-0.170992 0,0 -0.461667,0.35023 -1.478909,0.35023 v 2.478648 c 0.641511,0 1.142485,-0.125237 1.573869,-0.389636 0.547439,-0.335533 1.568794,-0.685762 2.783624,-0.06602 1.214838,0.61969 2.244813,0.61969 3.274794,0.08077 1.02998,-0.538869 1.600798,-0.635948 2.852257,-0.09424 1.214836,0.619691 2.41642,0.562692 3.4464,0.02384 z"
       id="path2-7"
       style="fill:#00ccff;stroke:#00ccff;stroke-width:0.0556623"
       inkscape:label="wave" />
  </g>
</svg>
