<?xml version="1.0" encoding="UTF-8" standalone="no"?>
<!-- Created with Inkscape (http://www.inkscape.org/) -->

<svg
   width="120"
   height="120"
   viewBox="0 0 120 120"
   version="1.1"
   id="svg1"
   inkscape:version="1.4.2 (ebf0e940d0, 2025-05-08)"
   sodipodi:docname="fishing_area.svg"
   xmlns:inkscape="http://www.inkscape.org/namespaces/inkscape"
   xmlns:sodipodi="http://sodipodi.sourceforge.net/DTD/sodipodi-0.dtd"
   xmlns="http://www.w3.org/2000/svg"
   xmlns:svg="http://www.w3.org/2000/svg">
  <sodipodi:namedview
     id="namedview1"
     pagecolor="#ffffff"
     bordercolor="#111111"
     borderopacity="1"
     inkscape:showpageshadow="0"
     inkscape:pageopacity="0"
     inkscape:pagecheckerboard="1"
     inkscape:deskcolor="#d1d1d1"
     inkscape:document-units="px"
     inkscape:zoom="1"
     inkscape:cx="12.5"
     inkscape:cy="95"
     inkscape:window-width="1920"
     inkscape:window-height="1122"
     inkscape:window-x="0"
     inkscape:window-y="0"
     inkscape:window-maximized="1"
     inkscape:current-layer="layer2-2" />
  <defs
     id="defs1" />
  <g
     inkscape:label="BoundingBox"
     inkscape:groupmode="layer"
     id="layer1">
    <rect
       style="opacity:0;fill:#ffffff;stroke:#ffffff;stroke-width:2;stroke-linecap:round;stroke-linejoin:round"
       id="rect1"
       width="120"
       height="120"
       x="0"
       y="0"
       ry="0.40268457" />
  </g>
  <g
     inkscape:groupmode="layer"
     id="layer2"
     inkscape:label="Symbol">
    <rect
       style="fill:#39ac39;fill-opacity:1;stroke:#39ac39;stroke-width:1.4365;stroke-linecap:square;stroke-miterlimit:90;stroke-dasharray:none;stroke-opacity:1"
       id="rect2"
       width="118.5635"
       height="118.5635"
       x="0.71825117"
       y="0.71825117"
       rx="2.496074"
       ry="2.496074" />
    <g
       inkscape:groupmode="layer"
       id="layer2-2"
       inkscape:label="Symbol"
       transform="matrix(0.14861311,0,0,0.14861311,-51.346213,-51.467949)"
       style="fill:#ffffff;stroke:#ffffff">
      <path
         style="fill:#ffffff;fill-rule:evenodd;stroke:#ffffff;stroke-width:1px;stroke-linecap:butt;stroke-linejoin:miter;stroke-opacity:1"
         d="m 967.33781,775.83893 0.22371,12.52796 -11.63311,23.26622 46.53249,0.22371 -12.3043,-22.81879 v -13.1991 l 5.59284,-4.25056 4.92166,-5.59284 3.8032,-7.15884 3.8031,-7.82998 3.3557,-10.06711 1.1186,-8.50112 0.6711,-13.19911 -1.1185,-14.09396 -1.7898,-10.73825 -3.1319,-9.8434 -4.4743,-8.94855 -4.47429,-7.60626 -7.60627,-8.50112 -11.60799,-2.59593 -11.41678,2.42167 -6.01119,6.0112 -5.06207,7.27671 -3.16379,5.69482 -3.48016,8.85861 -2.53103,7.90947 -1.5819,8.22586 -0.63276,8.54223 -0.63275,10.12412 1.58189,10.75688 1.58189,9.80775 2.84741,9.80774 3.16379,7.90947 5.06207,6.96034 3.79654,5.37844 z"
         id="path2"
         sodipodi:nodetypes="cccccccccccccccccccccccccccccccccccc"
         inkscape:label="fish" />
      <path
         style="display:inline;fill:#ffffff;fill-rule:evenodd;stroke:#ffffff;stroke-width:1px;stroke-linecap:butt;stroke-linejoin:miter;stroke-opacity:1"
         d="m 967.33781,414.31767 0.44743,245.63759 c 22.81879,0 22.81879,0 22.81879,0 l -0.44743,-267.1141 -21.92394,-13.42282 -17.44966,14.76511 -25.95078,24.6085 -40.71589,41.16331 -46.97986,49.66443 -33.53413,38.34852 -41.12926,51.25338 -44.9258,52.51889 -49.3551,60.74474 -36.69995,46.82408 -102.50675,134.14464 -128.09062,186.18816 h 34.89932 l 67.1141,-101.56604 65.32438,-93.06487 56.37584,-76.06264 38.52162,-49.63925 56.31544,-67.70508 98.07745,-113.26364 62.64302,-69.60335 44.9258,-49.35511 z"
         id="path3"
         inkscape:label="pole" />
      <path
         style="display:inline;fill:#ffffff;fill-rule:evenodd;stroke:#ffffff;stroke-width:1px;stroke-linecap:butt;stroke-linejoin:miter;stroke-opacity:1"
         d="m 396.19687,1090.3803 -2.57271,0.783 -1.56599,1.2304 -1.566,1.6779 -0.89485,1.6778 -0.89486,2.2372 -0.33557,2.5727 0.783,1.9016 1.34228,2.2371 2.68456,2.2371 302.57271,0.1119 2.349,-0.4474 2.12528,-1.566 1.34228,-1.3423 0.89485,-2.0134 0.11186,-2.6846 -0.55929,-3.3557 -2.01342,-2.2372 -1.67785,-1.4541 -2.68456,-1.3423 z"
         id="path4"
         inkscape:label="floor" />
      <path
         style="fill:#ffffff;fill-rule:evenodd;stroke:#ffffff;stroke-width:1px;stroke-linecap:butt;stroke-linejoin:miter;stroke-opacity:1"
         d="m 493.23466,1078.852 h 35.11806 l -65.49043,-103.13955 64.54129,0.63275 0.31638,-27.52496 -130.98085,-1.26551 v 29.73961 h 30.05599 z"
         id="path5"
         inkscape:label="chair" />
      <path
         style="fill:#ffffff;fill-rule:evenodd;stroke:#ffffff;stroke-width:1px;stroke-linecap:butt;stroke-linejoin:miter;stroke-opacity:1"
         d="m 599.22159,936.48146 0.63275,139.20674 94.28091,-0.6328 v -8.2258 l -1.89828,-7.5931 -5.06206,-3.7966 -7.59309,-2.531 -9.49137,-3.1638 -8.22585,-2.531 -4.4293,-3.7966 5.06206,-143.00323 0.63276,-12.65515 -1.26552,-6.96034 -8.85861,-9.49136 -14.55342,-0.63276 -128.44983,25.94307 15.18619,-82.89127 6.32758,4.42931 8.22585,13.92067 8.85861,9.49136 12.65515,2.53103 10.12413,-2.53103 88.58608,-54.41716 5.69482,-6.96034 0.63276,-9.49136 -6.96034,-11.38964 -32.27064,3.16378 -64.54129,36.0672 -21.51377,-33.53616 -12.02239,-24.0448 -11.38964,-10.75688 -16.4517,-7.59309 -16.45171,-3.79655 c 0,0 -17.08446,4.4293 -20.24824,5.69482 -3.16379,1.26552 -12.65516,14.55343 -12.65516,14.55343 l -5.06206,12.0224 -32.9034,166.41528 3.16378,12.65516 8.85861,15.18618 7.5931,2.53103 95.54642,1.26552 z"
         id="path6" />
      <ellipse
         style="fill:#ffffff;fill-rule:evenodd;stroke:#ffffff;stroke-width:1.38684px;stroke-linecap:butt;stroke-linejoin:miter;stroke-opacity:1"
         id="path7"
         cx="510.5542"
         cy="664.01038"
         rx="49.713097"
         ry="48.143589" />
      <path
         style="fill:#ffffff;fill-rule:evenodd;stroke:#ffffff;stroke-width:1px;stroke-linecap:butt;stroke-linejoin:miter;stroke-opacity:1"
         d="m 701.566,1006.7114 -5.81656,2.2371 c 0,0 -2.68456,5.8166 -2.68456,8.0537 0,2.2372 4.47427,7.1589 4.47427,7.1589 l 8.50112,0.8948 10.73825,1.3423 10.29083,3.132 9.8434,6.7114 12.52797,6.264 17.89709,4.9217 21.47651,0.8948 17.89709,-3.1319 16.55481,-7.1589 13.42282,-7.6062 10.73825,-4.0269 10.73826,-2.6846 11.18568,0.8949 14.31767,4.4743 11.63311,4.4742 15.21253,7.6063 12.97539,5.3691 15.65996,2.2372 h 16.55481 l 12.08054,-4.0269 14.7651,-6.264 10.29082,-6.2639 13.87024,-6.7114 9.396,-1.7898 13.8702,1.3423 c 0,0 9.396,1.7897 11.1857,2.6846 1.7897,0.8948 8.5011,3.5794 8.5011,3.5794 0,0 15.66,7.6063 17.4497,8.5011 1.7897,0.8949 20.5817,6.7114 20.5817,6.7114 l 16.1073,1.7897 4.4743,-3.1319 1.7897,-8.5012 -4.4743,-4.9217 -8.0536,-1.3422 -10.2909,-0.8949 -8.5011,-2.2371 -12.528,-8.0537 -11.1856,-5.8166 -11.6332,-5.3691 -17.0022,-2.2371 -14.3177,0.4474 -13.42278,2.6845 -12.08054,4.9217 -11.63311,6.7115 -10.29083,4.9217 -10.73825,5.3691 -14.7651,0.4474 -13.87025,-0.8948 -12.08053,-6.7115 -15.21253,-8.0536 -14.7651,-6.264 -17.44967,-1.3423 h -14.7651 l -12.08053,1.3423 -11.63311,5.3691 -13.42282,7.1588 -10.73826,5.8166 -7.15883,1.7897 -14.31768,2.2371 -12.52796,-2.2371 -8.50112,-1.3423 -7.60626,-3.132 -9.39598,-6.7114 -8.94854,-4.9217 -11.63311,-4.9217 -14.7651,-3.132 z"
         id="path8" />
      <path
         style="fill:#ffffff;fill-rule:evenodd;stroke:#ffffff;stroke-width:1px;stroke-linecap:butt;stroke-linejoin:miter;stroke-opacity:1"
         d="m 740.9396,1088.1432 -6.71141,-2.2372 -8.94855,4.0269 0.44743,6.7114 2.68456,5.8166 8.94855,4.9217 8.50112,5.3691 12.08054,4.4743 13.42281,3.1319 10.29083,0.4475 8.05369,-0.4475 11.63311,-1.3422 12.08054,-4.0269 8.94855,-5.8165 8.05369,-4.4743 c 0,0 4.9217,-2.6846 6.71141,-3.5794 1.78971,-0.8949 9.8434,-4.0269 9.8434,-4.0269 l 10.73825,-1.7897 h 10.73826 l 5.81655,0.8949 9.39597,2.2371 10.29083,5.8166 9.8434,4.9217 9.8434,6.2639 13.87025,3.5795 14.7651,0.8948 13.87025,0.4474 8.94854,-2.6845 17.89709,-7.1589 c 0,0 4.02685,-5.8165 5.81656,-6.2639 1.78971,-0.4475 12.97538,-4.4743 14.76508,-4.9217 1.7897,-0.4475 15.2125,-3.132 15.2125,-3.132 l 13.8703,0.4474 c 0,0 8.9485,2.6846 10.7382,3.132 1.7898,0.4474 9.396,4.9217 9.396,4.9217 l 12.9754,6.7114 14.3177,5.3691 13.8702,1.7897 13.4229,0.4475 2.6845,-6.7114 -4.4743,-8.5012 -8.0536,-1.7897 c 0,0 -8.9486,-0.4474 -10.7383,-0.8948 -1.7897,-0.4475 -11.1857,-5.3692 -11.1857,-5.3692 0,0 -15.6599,-6.7114 -17.4497,-7.6062 -1.7897,-0.8949 -15.2125,-7.1589 -17.897,-7.6063 -2.6846,-0.4474 -33.5571,-4.0268 -35.7942,-3.5794 -2.2372,0.4474 -20.13425,11.1857 -20.13425,11.1857 l -16.10739,7.6062 c 0,0 -6.26398,4.9217 -10.29082,5.8166 -4.02685,0.8949 -18.34452,1.7897 -21.02909,1.3423 -2.68456,-0.4474 -12.97539,-2.2372 -12.97539,-2.2372 l -12.52796,-5.8165 -15.21253,-7.6063 c 0,0 -13.87025,-6.264 -15.65996,-7.1588 -1.78971,-0.8949 -25.05592,-4.0269 -25.05592,-4.0269 l -8.94855,1.7898 -16.10738,5.8165 -8.94855,5.3691 -11.63311,7.1589 -8.05369,3.132 -11.18568,3.132 h -18.34452 l -14.31767,-3.132 -10.73826,-6.264 z"
         id="path9" />
    </g>
  </g>
</svg>
