<?xml version="1.0" encoding="UTF-8" standalone="no"?>
<!-- Created with Inkscape (http://www.inkscape.org/) -->

<svg
   width="120"
   height="120"
   viewBox="0 0 120 120"
   version="1.1"
   id="svg1"
   inkscape:version="1.4.2 (ebf0e940d0, 2025-05-08)"
   sodipodi:docname="fishing_hot_spot_facility.svg"
   xmlns:inkscape="http://www.inkscape.org/namespaces/inkscape"
   xmlns:sodipodi="http://sodipodi.sourceforge.net/DTD/sodipodi-0.dtd"
   xmlns="http://www.w3.org/2000/svg"
   xmlns:svg="http://www.w3.org/2000/svg">
  <sodipodi:namedview
     id="namedview1"
     pagecolor="#ffffff"
     bordercolor="#111111"
     borderopacity="1"
     inkscape:showpageshadow="0"
     inkscape:pageopacity="0"
     inkscape:pagecheckerboard="1"
     inkscape:deskcolor="#d1d1d1"
     inkscape:document-units="px"
     inkscape:zoom="0.875"
     inkscape:cx="-374.85714"
     inkscape:cy="-21.714286"
     inkscape:window-width="1920"
     inkscape:window-height="1122"
     inkscape:window-x="0"
     inkscape:window-y="0"
     inkscape:window-maximized="1"
     inkscape:current-layer="g6" />
  <defs
     id="defs1" />
  <g
     inkscape:label="BoundingBox"
     inkscape:groupmode="layer"
     id="layer1">
    <rect
       style="opacity:0;fill:#ffffff;stroke:#ffffff;stroke-width:2;stroke-linecap:round;stroke-linejoin:round"
       id="rect1"
       width="120"
       height="120"
       x="0"
       y="0"
       ry="0.40268457" />
  </g>
  <g
     inkscape:groupmode="layer"
     id="layer2"
     inkscape:label="Symbol">
    <rect
       style="fill:#39ac39;stroke:#39ac39;stroke-width:5.55928;stroke-linecap:square;stroke-miterlimit:90;fill-opacity:1;stroke-opacity:1"
       id="rect2"
       width="114.44072"
       height="114.44072"
       x="2.7796385"
       y="2.7796385"
       rx="3.0449407"
       ry="2.5374508" />
    <g
       id="g5"
       inkscape:label="building"
       transform="translate(4.9408354,0.3561814)">
      <rect
         style="fill:#ffffff;fill-opacity:1;stroke:#ffffff;stroke-width:3.21846;stroke-linecap:square;stroke-miterlimit:90;stroke-dasharray:none;stroke-opacity:1"
         id="rect3"
         x="6.6090069"
         y="46.60923"
         height="66.78154"
         width="46.78199"
         inkscape:label="outline" />
      <rect
         style="fill:#39ac39;fill-opacity:1;stroke:#39ac39;stroke-width:3.31041;stroke-linecap:square;stroke-miterlimit:90;stroke-dasharray:none;stroke-opacity:1"
         id="rect3-9"
         x="19.155207"
         y="56.799023"
         height="56.68959"
         width="21.68959"
         inkscape:label="entrance" />
      <path
         sodipodi:type="star"
         style="fill:#ffffff;fill-opacity:1;stroke:#ffffff;stroke-width:3.438;stroke-linecap:square;stroke-miterlimit:90;stroke-dasharray:none;stroke-opacity:1"
         id="path5"
         inkscape:flatsided="true"
         sodipodi:sides="3"
         sodipodi:cx="19.428572"
         sodipodi:cy="24.571428"
         sodipodi:r1="37.126644"
         sodipodi:r2="18.563322"
         sodipodi:arg1="0.52359878"
         sodipodi:arg2="1.5707963"
         inkscape:rounded="0"
         inkscape:randomized="0"
         d="m 51.581189,43.134751 -64.305234,-1e-6 32.152617,-55.689966 z"
         inkscape:transform-center-y="-3.1051546"
         transform="matrix(0.85228656,0,0,0.33454719,13.441291,30.494304)" />
    </g>
    <path
       d="m 100.03814,114.64925 c 1.53688,-0.99103 2.25401,-0.85701 3.51891,0.1288 1.26495,0.98594 2.52976,0.98594 4.02167,-0.14776 1.49169,-1.1338 2.70586,-0.48748 3.37953,0.12076 0.56394,0.50918 1.1279,0.71283 1.9717,0.71283 v -4.53463 c -1.27104,0.003 -1.81625,-0.64074 -1.81625,-0.64074 -1.31344,-1.20774 -2.51742,-0.96884 -4.17146,0.31284 -0.94347,0.73075 -2.43961,0.53849 -3.49881,-0.28412 -1.4595,-1.13361 -2.2858,-0.85641 -3.815441,0.15682 -1.185112,0.78494 -2.254702,0.78453 -3.434961,0 -1.528679,-1.01607 -2.317046,-1.29043 -3.776547,-0.15682 -1.059132,0.82261 -2.577146,1.01487 -3.520616,0.28412 -1.654112,-1.28168 -2.836151,-1.52058 -4.149709,-0.31284 0,0 -0.566955,0.64074 -1.816203,0.64074 v 4.53463 c 0.787819,0 1.403049,-0.22912 1.932822,-0.71283 0.672295,-0.61385 1.926587,-1.25458 3.41849,-0.12076 1.491901,1.1337 2.756787,1.1337 4.021674,0.14776 1.264888,-0.98584 1.965893,-1.16345 3.502775,-0.1724 1.491901,1.13371 2.967534,1.02943 4.232426,0.0436 z"
       id="path3644"
       style="fill:#ffffff;stroke:none;stroke-width:0.0834323"
       inkscape:label="water" />
    <g
       id="g6"
       inkscape:label="person"
       transform="translate(0,5.0000062)">
      <rect
         style="fill:#ffffff;fill-opacity:1;stroke:#ffffff;stroke-width:2.97114;stroke-linecap:square;stroke-miterlimit:90;stroke-dasharray:none;stroke-opacity:1"
         id="rect5"
         width="3.0288668"
         height="42.028858"
         x="70.477249"
         y="66.985565"
         rx="1.346162"
         ry="1.793381"
         inkscape:label="body" />
      <rect
         style="fill:#ffffff;fill-opacity:1;stroke:#ffffff;stroke-width:2.77824;stroke-linecap:square;stroke-miterlimit:90;stroke-dasharray:none;stroke-opacity:1"
         id="rect6"
         width="19.721754"
         height="1.22176"
         x="94.334366"
         y="-29.564257"
         rx="1.0471706"
         ry="1.22176"
         inkscape:label="arm"
         transform="rotate(60)" />
      <ellipse
         style="fill:#ffffff;fill-rule:evenodd;stroke:#ffffff;stroke-width:1.01119px;stroke-linecap:butt;stroke-linejoin:miter;stroke-opacity:1"
         id="path6"
         cx="71.991676"
         cy="60.499992"
         rx="4.4944043"
         ry="4.4944029"
         inkscape:label="head" />
      <rect
         style="fill:#ffffff;fill-opacity:1;stroke:#ffffff;stroke-width:2.37252;stroke-linecap:square;stroke-miterlimit:90;stroke-dasharray:none;stroke-opacity:1"
         id="rect7"
         width="29.943775"
         height="0.29860303"
         x="6.0856338"
         y="118.07735"
         rx="0.95432043"
         ry="0.29860303"
         transform="matrix(0.64205838,-0.76665575,0.64205838,0.76665575,0,0)"
         inkscape:label="pole" />
      <path
         style="fill:#ffffff;fill-rule:evenodd;stroke:#ffffff;stroke-width:0.972824px;stroke-linecap:butt;stroke-linejoin:miter;stroke-opacity:1"
         d="m 98.334872,62.681598 -0.80984,44.645972"
         id="path7"
         inkscape:label="line" />
    </g>
  </g>
</svg>
